<svg width="24" height="24" viewBox="0 0 24 24" fill="none" xmlns="http://www.w3.org/2000/svg">
<path d="M12.71 16.63H12.708C12.4901 16.5132 12.2467 16.4521 11.9995 16.4521C11.7523 16.4521 11.5089 16.5132 11.291 16.63L4.23601 20.44C4.15978 20.4811 4.07415 20.5017 3.98755 20.4997C3.90095 20.4978 3.81636 20.4733 3.7421 20.4287C3.66783 20.3841 3.60646 20.3209 3.56401 20.2454C3.52157 20.1699 3.49951 20.0846 3.50001 19.998V4.502C3.50001 3.949 3.94801 3.5 4.50001 3.5H19.5C20.052 3.5 20.5 3.949 20.5 4.502V19.998C20.5005 20.0844 20.4785 20.1695 20.4363 20.2449C20.394 20.3203 20.3329 20.3834 20.2589 20.428C20.1849 20.4727 20.1005 20.4974 20.0141 20.4996C19.9278 20.5019 19.8422 20.4817 19.766 20.441L12.709 16.631L12.71 16.63ZM12.235 17.51H12.234H12.235Z" stroke="white"/>
</svg>
