<svg width="24" height="24" viewBox="0 0 24 24" fill="none" xmlns="http://www.w3.org/2000/svg">
<g clip-path="url(#clip0_2630_618)">
<path fill-rule="evenodd" clip-rule="evenodd" d="M20.21 5.053H20.998C21.794 5.05353 22.5573 5.36998 23.1201 5.93285C23.683 6.49572 23.9995 7.25898 24 8.055V20.998C23.9995 21.794 23.683 22.5573 23.1201 23.1201C22.5573 23.683 21.794 23.9995 20.998 24H8.055C7.25898 23.9995 6.49572 23.683 5.93285 23.1201C5.36998 22.5573 5.05353 21.794 5.053 20.998V20.211H16.218C18.417 20.211 20.211 18.423 20.211 16.218V5.053H20.21ZM0 3.003C0.000264867 2.20681 0.316599 1.44329 0.879497 0.880204C1.4424 0.317119 2.20581 0.000530043 3.002 0L15.945 0C16.741 0.000529795 17.5043 0.316981 18.0672 0.879851C18.63 1.44272 18.9465 2.20598 18.947 3.002V15.945C18.9465 16.741 18.63 17.5043 18.0672 18.0672C17.5043 18.63 16.741 18.9465 15.945 18.947H3.002C2.20598 18.9465 1.44272 18.63 0.879851 18.0672C0.316981 17.5043 0.000529795 16.741 0 15.945L0 3.002V3.003Z" fill="white" fill-opacity="0.7"/>
</g>
<defs>
<clipPath id="clip0_2630_618">
<rect width="24" height="24" fill="white"/>
</clipPath>
</defs>
</svg>
