<svg width="108" height="30" viewBox="0 0 108 30" fill="none" xmlns="http://www.w3.org/2000/svg">
<path d="M13.6025 10.4163C13.6025 10.4163 13.4475 8.53425 11.2925 8.44165C10.6275 8.41412 10.04 8.71194 9.6025 9.14991L9.37 9.40269L5.915 13.4346L9.9725 2.8581L7.7 0L0 19.3234L1.625 21.3857C1.625 21.3857 6.4825 15.234 8.765 12.2833C9.4675 11.3748 9.97 10.7491 10.09 10.6666C10.2775 10.4864 10.495 10.5865 10.5975 10.6666C11.1525 11.0995 9.9575 13.5972 9.9575 13.5972L7.56 19.2233L9.415 21.5784L10.84 18.2623L12.1325 15.184L13.41 12.1432C13.43 12.0581 13.73 11.505 13.6025 10.4163Z" fill="#1A1A1A"/>
<path d="M25.045 19.5812C25.045 19.5812 25.2 21.4607 27.355 21.5533C28.02 21.5808 28.6075 21.283 29.045 20.845L29.2775 20.5923L32.7325 16.5604L28.675 27.1369L30.95 29.9949L38.6475 10.6715L37.0225 8.61178C37.0225 8.61178 32.165 14.7609 29.8825 17.7141C29.18 18.6226 28.6775 19.2483 28.5575 19.3309C28.37 19.5111 28.1525 19.4135 28.05 19.3334C27.495 18.9004 28.69 16.4027 28.69 16.4027L31.0875 10.7791L29.2325 8.42407L27.8075 11.7402L26.515 14.8185L25.2375 17.8593C25.2175 17.9394 24.915 18.4925 25.045 19.5812Z" fill="#1A1A1A"/>
<path d="M65.2073 19.8866C65.2073 19.8866 65.4573 21.7586 67.6123 21.7436C68.2773 21.7386 68.8498 21.4108 69.2648 20.9528L69.4848 20.69L72.7348 16.4929L69.1598 27.2596L71.5723 30.0001L78.3498 10.3163L76.6248 8.33911C76.6248 8.33911 72.0773 14.7235 69.9448 17.7843C69.2898 18.7254 68.8148 19.3761 68.7023 19.4662C68.5223 19.6539 68.3023 19.5688 68.1948 19.4937C67.6173 19.0883 68.6898 16.5355 68.6898 16.5355L70.8073 10.7993L68.8373 8.53933L67.5798 11.923L66.4423 15.0614L65.3173 18.1623C65.2998 18.2348 65.0248 18.803 65.2073 19.8866Z" fill="#1A1A1A"/>
<path d="M24.7948 13.1718C24.6948 13.1919 24.6098 13.282 24.5448 13.4321C23.8573 14.7886 23.1473 15.9824 22.4173 17.016C21.6898 18.0521 20.9923 18.8755 20.3373 19.4862C19.6748 20.0969 19.0773 20.4572 18.5398 20.5674C18.0023 20.6775 17.5773 20.4748 17.2748 19.9617C17.2148 19.8791 17.1698 19.7865 17.1398 19.6839C17.1073 19.5838 17.0798 19.4787 17.0548 19.3711C17.0348 19.266 17.0173 19.1508 17.0098 19.0307C16.8998 17.7518 17.5498 16.2277 17.7073 15.8773C17.7948 15.9123 17.9073 15.9499 18.0523 15.9749C18.1923 16.0049 18.3373 15.9999 18.4848 15.9674C19.1798 15.8147 19.8598 15.4894 20.5223 14.9938C20.5223 14.9938 22.8173 13.3045 23.4023 11.5951C23.4248 11.5301 23.5923 10.9119 23.4373 10.6216C23.3048 10.3738 22.6923 9.72061 22.2548 9.26261C22.0573 9.05739 21.8973 8.89221 21.8298 8.82213C21.7973 8.7871 21.7573 8.75957 21.7173 8.73454C21.6498 8.70451 21.5848 8.67698 21.5198 8.65195C20.4273 8.22148 19.6648 8.47175 19.6648 8.47175L19.6148 8.48177C19.0598 8.6044 18.4973 8.90222 17.9248 9.38024C17.3498 9.85325 16.8098 10.4389 16.3073 11.1346C15.8023 11.8279 15.3523 12.5912 14.9548 13.4271C14.5598 14.258 14.2648 15.0989 14.0773 15.9474C13.8823 16.7958 13.8148 17.6117 13.8623 18.3975C13.8998 19.0232 14.0473 19.5888 14.2998 20.0943C14.2998 20.0943 14.3023 20.0969 14.3048 20.1044C14.3298 20.1544 14.6723 20.5924 15.1973 20.9303C15.1973 20.9303 15.2048 20.9353 15.2173 20.9428C15.3773 21.0429 15.5548 21.1355 15.7448 21.203C16.2048 21.3907 16.9173 21.5935 17.7598 21.5234C17.7973 21.5209 17.8373 21.5159 17.8748 21.5109C17.9173 21.5059 17.9623 21.5034 18.0073 21.4959V21.4934C18.1373 21.4758 18.2723 21.4533 18.4148 21.4208L18.4298 21.4158C18.6398 21.3682 18.8623 21.3032 19.0998 21.2181C19.7748 20.9277 20.9098 20.2095 22.2723 18.4451C22.4573 18.1998 22.6523 17.9295 22.8498 17.6367C23.2198 17.041 24.6948 14.5959 24.9198 13.2644C24.9048 13.1969 24.8698 13.1568 24.7948 13.1718ZM18.5548 14.1679C18.8473 13.5923 19.9823 11.5251 21.4873 10.8869C21.7398 10.7517 21.9873 10.6566 22.2348 10.5991L22.3448 10.5765C22.3523 10.8643 22.2248 11.2147 21.9648 11.6227C21.7073 12.0281 21.3748 12.4335 20.9723 12.844C20.5648 13.2544 20.1198 13.6399 19.6273 14.0027C19.1348 14.3606 18.6673 14.6234 18.2148 14.7811C18.3323 14.5634 18.4398 14.3581 18.5548 14.1679Z" fill="#1A1A1A"/>
<path d="M99.0078 13.1718C98.9078 13.1919 98.8228 13.282 98.7578 13.4321C98.0703 14.7886 97.3628 15.9824 96.6303 17.016C95.9028 18.0521 95.2053 18.8755 94.5478 19.4862C93.8878 20.0969 93.2878 20.4572 92.7503 20.5674C92.2128 20.6775 91.7878 20.4748 91.4853 19.9617C91.4253 19.8791 91.3803 19.7865 91.3503 19.6839C91.3178 19.5838 91.2878 19.4787 91.2653 19.3711C91.2453 19.266 91.2278 19.1508 91.2203 19.0307C91.1103 17.7518 91.7578 16.2277 91.9153 15.8773C92.0028 15.9123 92.1153 15.9499 92.2603 15.9749C92.4003 16.0049 92.5428 15.9999 92.6928 15.9674C93.3903 15.8147 94.0678 15.4894 94.7303 14.9938C94.7303 14.9938 97.0253 13.3045 97.6103 11.5951C97.6303 11.5301 97.8003 10.9119 97.6453 10.6216C97.5128 10.3738 96.9003 9.72061 96.4628 9.26261C96.2653 9.05739 96.1053 8.89221 96.0378 8.82213C96.0053 8.7871 95.9653 8.75957 95.9253 8.73454C95.8578 8.70451 95.7928 8.67698 95.7278 8.65195C94.6353 8.22148 93.8728 8.47175 93.8728 8.47175L93.8228 8.48177C93.2678 8.6044 92.7053 8.90222 92.1328 9.38024C91.5578 9.85325 91.0178 10.4389 90.5153 11.1346C90.0103 11.8279 89.5603 12.5912 89.1628 13.4271C88.7678 14.258 88.4728 15.0989 88.2853 15.9474C88.0903 16.7958 88.0228 17.6117 88.0703 18.3975C88.1078 19.0232 88.2553 19.5888 88.5103 20.0943C88.5103 20.0943 88.5128 20.0969 88.5153 20.1044C88.5403 20.1544 88.8828 20.5924 89.4103 20.9303C89.4103 20.9303 89.4178 20.9353 89.4303 20.9428C89.5903 21.0429 89.7678 21.1355 89.9603 21.203C90.4203 21.3907 91.1328 21.5935 91.9753 21.5234C92.0128 21.5209 92.0528 21.5159 92.0903 21.5109C92.1353 21.5059 92.1778 21.5034 92.2228 21.4959V21.4934C92.3528 21.4758 92.4878 21.4533 92.6303 21.4208L92.6453 21.4158C92.8553 21.3682 93.0803 21.3032 93.3153 21.2181C93.9903 20.9277 95.1253 20.2095 96.4878 18.4451C96.6728 18.1998 96.8678 17.9295 97.0653 17.6367C97.4353 17.041 98.9103 14.5959 99.1353 13.2644C99.1178 13.1969 99.0828 13.1568 99.0078 13.1718ZM92.7653 14.1679C93.0578 13.5923 94.1928 11.5251 95.6978 10.8869C95.9528 10.7517 96.2003 10.6566 96.4453 10.5991L96.5553 10.5765C96.5628 10.8643 96.4353 11.2147 96.1753 11.6227C95.9153 12.0281 95.5853 12.4335 95.1828 12.844C94.7753 13.2544 94.3328 13.6399 93.8378 14.0027C93.3453 14.3606 92.8778 14.6234 92.4253 14.7811C92.5453 14.5634 92.6553 14.3581 92.7653 14.1679Z" fill="#1A1A1A"/>
<path d="M56.6902 19.5583H56.6927C56.6952 19.4633 56.7027 19.3608 56.7152 19.2583C56.6952 19.3258 56.6802 19.3933 56.6802 19.4683C56.6802 19.4983 56.6852 19.5283 56.6902 19.5583Z" fill="#1A1A1A"/>
<path opacity="0.5" d="M56.6902 19.5583H56.6927C56.6952 19.4633 56.7027 19.3608 56.7152 19.2583C56.6952 19.3258 56.6802 19.3933 56.6802 19.4683C56.6802 19.4983 56.6852 19.5283 56.6902 19.5583Z" fill="#1A1A1A"/>
<path d="M56.6926 19.5586H56.6899C56.6899 19.5718 56.6899 19.5823 56.6926 19.5954C56.6926 19.5823 56.6926 19.5718 56.6926 19.5586Z" fill="#1A1A1A"/>
<path d="M67.1051 9.94837C67.0751 9.97339 67.0226 10.031 66.9201 10.1536C66.6501 10.4664 65.8501 11.4925 65.2751 11.8705C65.2851 11.7603 65.2926 11.6502 65.2926 11.5376C65.2926 10.972 65.1576 10.4414 64.9201 9.9784C64.6201 9.38776 64.1526 8.91475 63.5876 8.62444C63.2776 8.46427 62.9401 8.36165 62.5826 8.32662C61.0526 8.09887 59.5976 9.00735 59.2601 10.4514C58.9226 11.9055 59.8426 13.3771 61.3376 13.8351C61.2501 14.0378 61.1551 14.248 61.0576 14.4633C60.8851 14.8437 60.7026 15.2416 60.5076 15.6571C60.1476 16.4254 59.8001 17.1111 59.4451 17.7543C59.0651 18.4401 58.7076 18.9982 58.3526 19.4562C58.2051 19.6489 58.0676 19.8015 57.9451 19.9242C57.9151 19.9542 57.8851 19.9792 57.8576 20.0043C57.8401 20.0218 57.8226 20.0343 57.8026 20.0493C57.6876 20.1244 57.5526 20.1694 57.4051 20.1694C57.0476 20.1694 56.7526 19.9117 56.6926 19.5713C56.6901 19.5588 56.6901 19.5488 56.6901 19.5363C56.6851 19.5062 56.6801 19.4762 56.6801 19.4437C56.6801 19.3711 56.6951 19.301 56.7151 19.2359C56.7601 18.7754 56.8676 18.2649 56.9226 18.0146C57.0526 17.419 57.2276 16.8008 57.4426 16.1801C57.6476 15.582 57.8876 14.9763 58.1551 14.3857C58.2801 14.1104 58.5701 13.5648 58.5701 13.5648L57.1576 11.8004C57.1576 11.8004 56.9901 11.963 56.9326 12.0281C55.7276 13.347 54.9426 16.1651 54.7651 16.8533C54.7651 16.8533 54.6551 17.4465 54.6151 17.7718C54.6151 17.7794 54.6126 17.7894 54.6101 17.8069C54.6101 17.8144 54.6101 17.8194 54.6076 17.8269C54.5551 18.3099 54.2951 21.4959 56.8226 21.621C56.8226 21.621 59.0051 22.1291 61.3251 19.6489L61.3226 19.6464C61.3951 19.5738 61.4676 19.4987 61.5401 19.4211C61.6276 19.3285 61.9276 18.9681 61.9851 18.8906C62.0001 18.8705 63.4926 16.9835 64.3526 15.0038V15.0064C64.3526 15.0064 64.4826 14.7285 64.6401 14.2956C64.7376 14.0503 64.8401 13.7825 64.8726 13.6649L64.9076 13.4972C64.9751 13.272 65.0376 13.0342 65.0926 12.7889C65.1926 12.6988 65.2951 12.6012 65.3951 12.4986C65.4276 12.4661 65.4576 12.4361 65.4901 12.4035C65.5276 12.3635 65.5676 12.3234 65.6051 12.2809C65.6901 12.1908 65.7726 12.0957 65.8551 11.9981C65.8576 11.9956 65.8601 11.9931 65.8626 11.9906C66.5626 11.1672 67.1851 10.1886 67.1976 10.0159L67.2076 9.87579L67.1051 9.94837ZM62.2501 11.022C62.2476 11.0471 62.2451 11.0746 62.2426 11.1021C62.1926 11.5351 61.9376 12.4586 61.9276 12.4786C61.5076 12.3835 61.1201 12.2258 60.7826 12.0106C60.4451 11.7954 60.2551 11.5326 60.2201 11.2273C60.1451 10.8343 60.1951 10.504 60.3676 10.2437C60.5426 9.98091 60.7551 9.7932 61.0001 9.68809C61.2251 9.59549 61.4426 9.56295 61.6576 9.58798C61.6826 9.59048 61.7076 9.59298 61.7326 9.59799C61.9651 9.63553 62.1076 9.75065 62.1701 9.94086L62.2126 10.111C62.2626 10.3338 62.2751 10.6391 62.2501 11.022Z" fill="#1A1A1A"/>
<path d="M55.9874 5.01294L45.0324 8.35657L47.1099 11.0144L51.2349 9.75308C50.6974 11.2472 49.8924 13.377 49.2649 14.5908C49.2649 14.5908 48.0574 16.8958 47.9949 17.0009C46.7274 19.1082 45.8949 20.4171 45.5099 20.9027C45.4924 20.9252 45.4749 20.9452 45.4599 20.9652C45.1249 21.4357 43.5399 23.3253 42.4499 23.2627C42.2349 23.2502 42.0524 23.1601 41.9024 22.9949C41.8924 22.9849 41.7074 22.7772 41.6999 22.3567C41.6949 21.9738 41.8449 21.3431 42.5524 20.4772C42.5874 20.4346 42.6224 20.3896 42.6599 20.3471C43.7474 19.2559 44.7624 18.8104 44.7624 18.8104C44.7624 18.7954 43.8349 17.6091 43.8124 17.6091C43.4949 17.6216 43.1524 17.7017 42.7949 17.8443C42.6399 17.9069 42.2699 18.0946 41.8449 18.4125L41.7949 18.45C41.0199 19.0506 40.4774 19.7915 40.1824 20.6574C40.1474 20.7775 39.9349 21.5559 40.0224 22.4143C40.0649 22.8197 40.1724 23.2452 40.3999 23.6281C40.5099 23.8133 40.6399 23.9735 40.7924 24.1161C41.0899 24.3964 41.4699 24.5967 41.9274 24.7118C41.9374 24.7143 41.9724 24.7218 42.0274 24.7343C42.4449 24.8569 42.9024 24.9245 43.3874 24.9245C43.6349 24.9245 43.8749 24.9045 44.1074 24.872C44.1449 24.8669 44.1824 24.8619 44.2274 24.8544C44.2399 24.8519 44.2499 24.8494 44.2624 24.8494C44.2824 24.8444 44.3024 24.8419 44.3224 24.8369C44.3424 24.8319 44.3624 24.8269 44.3799 24.8244C44.3949 24.8219 44.4099 24.8169 44.4274 24.8144C44.5174 24.7944 44.6049 24.7744 44.6899 24.7493C45.0399 24.6517 45.3549 24.5166 45.6324 24.3489C46.8049 23.7382 48.4849 22.4293 50.4649 19.6263C50.4674 19.6238 50.7149 19.2534 51.0949 18.6277C52.2099 16.8833 52.6874 15.8622 52.6874 15.8622C53.6224 14.0277 54.9249 10.3713 55.5649 8.42164L58.0649 7.6558L55.9874 5.01294Z" fill="#1A1A1A"/>
<path opacity="0.5" d="M87.5276 10.8995C87.5276 10.8919 87.5276 10.8818 87.5276 10.8743C87.5276 10.8995 87.5276 10.9247 87.5251 10.9474C87.5226 10.9297 87.5276 10.9146 87.5276 10.8995Z" fill="#1A1A1A"/>
<path d="M84.7923 8.40918C84.7898 8.40918 84.7848 8.40918 84.7798 8.40918C84.6873 8.40167 84.5948 8.39917 84.4998 8.39917C84.4898 8.39917 84.4773 8.39917 84.4648 8.39917C84.3623 8.39917 84.2623 8.40418 84.1648 8.41169C84.1623 8.41169 84.1573 8.41169 84.1548 8.41169C84.0648 8.4192 83.9748 8.43171 83.8873 8.44422C83.8523 8.44923 83.8173 8.45673 83.7823 8.46424C83.7323 8.47425 83.6823 8.48426 83.6348 8.49427C83.5648 8.51179 83.4898 8.52931 83.4198 8.55184C83.4173 8.55184 83.4148 8.55434 83.4148 8.55434C82.9698 8.68699 82.5748 8.89971 82.2548 9.17501C82.0148 9.35771 81.7798 9.57544 81.5498 9.83072C81.2973 10.111 81.0473 10.4264 80.7823 10.7993L80.7473 10.8468L80.7523 10.8518C80.4323 11.2898 78.2773 14.3932 78.2173 18.1172C78.2198 18.3024 78.2348 18.4826 78.2548 18.6603C78.3023 19.0582 78.3898 19.4311 78.5223 19.774C78.5623 19.9141 78.6273 20.0493 78.7023 20.1769C78.7048 20.1819 78.7073 20.1844 78.7098 20.1894C78.7223 20.212 78.7373 20.2395 78.7573 20.2695C78.8873 20.4647 79.0623 20.6424 79.2673 20.7976C79.7948 21.2556 80.6173 21.5534 81.5423 21.5534C81.5598 21.5534 81.5773 21.5509 81.5973 21.5509C81.6723 21.5534 81.7498 21.5534 81.8248 21.5484H81.8273C81.8723 21.5459 81.9148 21.5384 81.9598 21.5334C82.0298 21.5259 82.0998 21.5184 82.1673 21.5084C82.2098 21.5009 82.2523 21.4934 82.2973 21.4833C82.3073 21.4808 82.3173 21.4783 82.3248 21.4783C82.3548 21.4733 82.3823 21.4658 82.4123 21.4608C82.4148 21.4608 82.4198 21.4583 82.4223 21.4583C83.0123 21.3307 83.5173 21.0804 83.8748 20.7501C83.8798 20.745 83.8848 20.74 83.8898 20.735C83.9048 20.7225 83.9173 20.71 83.9323 20.6975C83.9673 20.665 84.0048 20.6349 84.0373 20.6024C84.4398 20.267 84.8148 19.8491 85.1423 19.3661C85.3023 19.1283 85.4523 18.873 85.5898 18.6052C85.7648 18.2599 85.9148 17.8945 86.0398 17.5065C86.0648 17.434 86.0873 17.3589 86.1073 17.2838C86.2173 16.9084 86.2923 16.5305 86.3423 16.1601C86.2873 16.1876 86.2248 16.2402 86.1673 16.3478C85.9248 16.7382 85.5223 17.3764 85.0448 18.0646C84.9623 18.1673 84.8698 18.2724 84.7748 18.38C84.6673 18.5001 84.5548 18.6228 84.4348 18.7454C84.3723 18.808 84.3073 18.8705 84.2423 18.9331C83.7373 19.4111 83.1473 19.8266 82.5548 19.9367C82.4923 19.9492 82.4298 19.9542 82.3723 19.9542C81.7598 19.9542 81.5898 19.301 81.5448 19.0057C81.4823 18.6578 81.4998 18.2098 81.5898 17.6667C81.6148 17.5165 81.6448 17.3614 81.6823 17.1962C81.7523 16.8709 81.8498 16.5155 81.9673 16.1326C82.1623 15.4969 82.4198 14.7811 82.7373 13.9902C82.8573 13.6899 82.9898 13.3746 83.1348 13.0592C83.4473 12.3635 83.8123 11.6602 84.2148 11.0846C84.5848 10.559 84.9848 10.1386 85.4123 9.93084C85.4423 9.90831 85.8098 9.72311 85.9898 9.98839C86.0698 10.1035 86.0873 10.2912 86.0398 10.544C86.0073 10.7242 85.5148 11.4325 85.2448 11.8129C85.1398 11.958 85.0673 12.0581 85.0673 12.0581C85.0673 12.0581 85.2223 12.2133 85.6173 12.2934C85.7523 12.3209 85.9123 12.3384 86.1073 12.3384C86.8723 12.3384 87.1348 12.0581 87.1348 12.0581C87.1348 12.0581 87.4898 11.5626 87.5273 10.9144C87.5273 10.9119 87.5273 10.9094 87.5273 10.9069C87.5298 10.8819 87.5298 10.8568 87.5298 10.8343C87.5098 9.56794 86.3173 8.53682 84.7923 8.40918Z" fill="#1A1A1A"/>
<path d="M100.775 16.3677L102.612 19.1832L108 8.50414L105.74 6.30176L100.775 16.3677Z" fill="#1A1A1A"/>
<path d="M101.513 21.5658C101.53 21.5033 101.545 21.4407 101.555 21.3781C101.615 21.0528 101.593 20.7349 101.508 20.4471C101.398 20.0767 101.178 19.7564 100.885 19.5311C100.725 19.406 100.54 19.3134 100.34 19.2533C99.4876 18.963 98.5576 19.3284 98.2151 20.1218C97.8701 20.9201 98.2426 21.8586 99.0501 22.2791C99.0426 22.2891 99.3101 22.4017 99.4601 22.4293C100.123 22.5519 100.773 22.4092 101.305 22.0864C101.308 22.0814 101.31 22.0764 101.313 22.0739C101.378 22.0313 101.448 21.9863 101.515 21.9387C101.538 21.9237 101.558 21.9087 101.58 21.8937C101.6 21.8787 101.62 21.8661 101.638 21.8511C101.895 21.6334 102.113 21.3656 102.273 21.0578C102.033 21.248 101.738 21.4707 101.513 21.5658ZM99.8676 20.7625C99.8651 20.7775 99.8601 20.7925 99.8551 20.8075C99.7801 21.0503 99.5376 21.5508 99.5301 21.5608C99.2976 21.4632 99.0951 21.3306 98.9226 21.1729C98.7526 21.0152 98.6726 20.845 98.6826 20.6648C98.6826 20.4321 98.7451 20.2469 98.8701 20.1168C98.9976 19.9841 99.1401 19.9015 99.2901 19.8665C99.4301 19.8365 99.5551 19.8415 99.6776 19.8765C99.6926 19.8815 99.7051 19.884 99.7201 19.8915C99.8476 19.9391 99.9176 20.0192 99.9351 20.1343L99.9401 20.2344C99.9476 20.3695 99.9251 20.5447 99.8676 20.7625Z" fill="#1A1A1A"/>
</svg>
