<svg width="50" height="50" viewBox="0 0 50 50" fill="none" xmlns="http://www.w3.org/2000/svg">
<path d="M49.4488 46.7777L39.27 36.6205C42.8625 32.3427 44.665 26.843 44.3018 21.2682C43.9385 15.6935 41.4375 10.4742 37.3204 6.69893C33.2033 2.92367 27.7879 0.883926 22.2037 1.00511C16.6195 1.12629 11.2977 3.39903 7.34812 7.34934C3.39857 11.2996 1.12626 16.6225 1.00511 22.2078C0.883949 27.793 2.9233 33.2094 6.69783 37.3274C10.4724 41.4453 15.6906 43.9468 21.2643 44.3101C26.838 44.6734 32.3367 42.8705 36.6137 39.2774L46.7689 49.458C47.1284 49.8057 47.6088 50 48.1088 50C48.6088 50 49.0893 49.8057 49.4488 49.458C49.8019 49.1014 50 48.6198 50 48.1179C50 47.6159 49.8019 47.1343 49.4488 46.7777ZM4.85521 22.725C4.85521 19.1908 5.90301 15.736 7.86611 12.7975C9.82921 9.85894 12.6194 7.56862 15.884 6.21615C19.1485 4.86368 22.7407 4.50982 26.2062 5.1993C29.6718 5.88878 32.8552 7.59064 35.3537 10.0897C37.8523 12.5887 39.5538 15.7727 40.2432 19.2389C40.9325 22.7052 40.5787 26.298 39.2265 29.5632C37.8743 32.8283 35.5844 35.6191 32.6464 37.5826C29.7085 39.546 26.2543 40.594 22.7208 40.594C17.9845 40.5878 13.4439 38.7032 10.0948 35.3534C6.74569 32.0037 4.86143 27.4623 4.85521 22.725Z" fill="#222222" fill-opacity="0.8"/>
</svg>
