<svg width="12" height="12" viewBox="0 0 12 12" fill="none" xmlns="http://www.w3.org/2000/svg">
<path d="M6.21384 0.00466665L6.28254 0C6.42635 2.15404e-05 6.56516 0.0599708 6.67264 0.168477C6.78011 0.276983 6.84877 0.426499 6.86559 0.588667L6.8697 0.666667V5.33333H10.9799C11.1237 5.33336 11.2625 5.3933 11.37 5.50181C11.4774 5.61032 11.5461 5.75983 11.5629 5.922L11.567 6C11.567 6.16329 11.5142 6.32089 11.4186 6.44292C11.3231 6.56494 11.1914 6.6429 11.0486 6.662L10.9799 6.66667H6.8697V11.3333C6.86969 11.4966 6.81688 11.6542 6.72132 11.7762C6.62575 11.8983 6.49407 11.9762 6.35124 11.9953L6.28254 12C6.13872 12 5.99991 11.94 5.89244 11.8315C5.78497 11.723 5.71631 11.5735 5.69948 11.4113L5.69537 11.3333V6.66667H1.58521C1.4414 6.66665 1.30259 6.6067 1.19512 6.49819C1.08764 6.38968 1.01898 6.24017 1.00216 6.078L0.998047 6C0.998066 5.83671 1.05087 5.67911 1.14643 5.55709C1.242 5.43506 1.37369 5.35711 1.51651 5.338L1.58521 5.33333H5.69537V0.666667C5.69539 0.503378 5.74819 0.345775 5.84376 0.223752C5.93932 0.101729 6.07101 0.0237714 6.21384 0.00466665Z" fill="#337752"/>
</svg>
