<svg width="30" height="30" viewBox="0 0 30 30" fill="none" xmlns="http://www.w3.org/2000/svg">
<path fill-rule="evenodd" clip-rule="evenodd" d="M22.34 15.57C22.3416 16.6693 22.6668 17.7439 23.2749 18.6597C23.8831 19.5755 24.7474 20.292 25.76 20.72C25.74 20.82 25.23 22.56 23.98 24.34C22.93 25.91 21.83 27.44 20.08 27.47C18.39 27.51 17.82 26.47 15.88 26.47C13.92 26.47 13.31 27.44 11.68 27.51C10.03 27.57 8.75999 25.84 7.67999 24.28C5.49999 21.11 3.80999 15.35 6.07999 11.43C6.60272 10.4895 7.36011 9.70045 8.27841 9.13966C9.1967 8.57887 10.2446 8.26548 11.32 8.23C12.98 8.2 14.52 9.35 15.54 9.35C16.54 9.35 18.45 7.97 20.42 8.18C21.24 8.2 23.59 8.5 25.1 10.7C24.97 10.78 22.3 12.34 22.34 15.57V15.57ZM19.14 6.09C18.6847 6.65873 18.106 7.11637 17.4476 7.42823C16.7892 7.7401 16.0685 7.89801 15.34 7.89C15.16 6.43 15.88 4.89 16.68 3.94C17.6449 2.84374 18.9874 2.15111 20.44 2C20.61 3.5 20.01 5 19.14 6.09Z" fill="black"/>
</svg>
