<svg width="30" height="30" viewBox="0 0 30 30" fill="none" xmlns="http://www.w3.org/2000/svg">
<path d="M9.01887 11.8719C8.86199 11.8716 8.70853 11.9178 8.57793 12.0048C8.44733 12.0917 8.34545 12.2154 8.28519 12.3602C8.22493 12.5051 8.20899 12.6646 8.2394 12.8185C8.26981 12.9724 8.3452 13.1138 8.45602 13.2249C8.56684 13.3359 8.70812 13.4116 8.86196 13.4423C9.01581 13.4731 9.17531 13.4574 9.32029 13.3975C9.46526 13.3375 9.58919 13.2359 9.67639 13.1055C9.76358 12.975 9.81012 12.8217 9.81012 12.6648C9.81012 12.4548 9.72681 12.2534 9.57847 12.1047C9.43013 11.9561 9.22887 11.8723 9.01887 11.8719Z" fill="#757575"/>
<path d="M16.842 11.7907C16.6733 11.7907 16.5083 11.8408 16.368 11.9346C16.2277 12.0284 16.1183 12.1617 16.0538 12.3176C15.9893 12.4736 15.9725 12.6452 16.0056 12.8107C16.0386 12.9762 16.12 13.1282 16.2395 13.2474C16.3589 13.3666 16.5111 13.4477 16.6766 13.4805C16.8422 13.5132 17.0138 13.4961 17.1696 13.4313C17.3254 13.3665 17.4585 13.2569 17.5521 13.1164C17.6456 12.9759 17.6954 12.8108 17.695 12.642C17.6946 12.4161 17.6045 12.1996 17.4446 12.0399C17.2847 11.8803 17.068 11.7907 16.842 11.7907Z" fill="#757575"/>
<path d="M23.9227 4H7.07728C6.26114 4 5.47842 4.32421 4.90131 4.90131C4.32421 5.47842 4 6.26113 4 7.07728V17.076C4 17.8922 4.32421 18.6749 4.90131 19.252C5.47842 19.8291 6.26114 20.1533 7.07728 20.1533H13.0271L15.0499 24.9203C15.0499 24.9203 15.1897 25.3346 15.5276 25.3346C15.8639 25.3346 16.0037 24.9203 16.0037 24.9203L18.0281 20.1533H23.9227C24.3268 20.1533 24.727 20.0737 25.1003 19.919C25.4737 19.7644 25.8129 19.5377 26.0987 19.252C26.3844 18.9662 26.6111 18.627 26.7658 18.2536C26.9204 17.8803 27 17.4801 27 17.076V7.07728C27 6.67316 26.9204 6.27301 26.7658 5.89965C26.6111 5.5263 26.3844 5.18707 26.0987 4.90131C25.8129 4.61556 25.4737 4.38889 25.1003 4.23424C24.727 4.07959 24.3268 4 23.9227 4ZM11.2253 12.8387C11.2155 14.6665 9.32594 14.7185 9.32594 14.7185C9.11332 14.718 8.90299 14.6746 8.70755 14.5908C8.51212 14.5071 8.33561 14.3847 8.18861 14.2311V14.556H6.81245V8.88888C6.89856 8.90188 8.18861 8.88888 8.18861 8.88888V11.0595C8.51356 10.5071 9.44942 10.5169 9.44942 10.5169C11.4804 10.7037 11.2253 12.8387 11.2253 12.8387ZM13.6494 10.6875V14.5739H12.3074V10.7265C12.3074 10.2033 11.6575 10.0571 11.6575 10.0571V8.70041C13.8038 8.78815 13.6494 10.6875 13.6494 10.6875ZM16.842 14.7217C15.5942 14.7217 14.5836 13.7908 14.5836 12.6421C14.5836 11.4934 15.5942 10.564 16.842 10.564C18.0899 10.564 19.1005 11.495 19.1005 12.6421C19.1005 13.7891 18.0899 14.7217 16.842 14.7217ZM24.2217 14.7217C24.2217 14.7217 24.2412 16.6958 22.2346 16.6958H21.6253V15.4171H21.9925C21.9925 15.4171 22.8358 15.4951 22.826 14.1953C22.826 14.1953 22.6635 14.7217 21.4791 14.7217C21.4791 14.7217 19.8023 14.6015 19.8023 12.9654V12.3447C19.8023 12.3447 19.8413 10.6485 21.6822 10.5136C21.9056 10.4983 22.1293 10.538 22.3339 10.6292C22.5384 10.7204 22.7174 10.8604 22.8553 11.0368V10.6192H24.2217V14.7217Z" fill="#757575"/>
<path d="M22.0802 11.8102C21.9153 11.8102 21.7541 11.8591 21.617 11.9508C21.4799 12.0424 21.3731 12.1727 21.31 12.3251C21.247 12.4775 21.2306 12.6452 21.2629 12.8069C21.2952 12.9686 21.3747 13.1171 21.4914 13.2336C21.6082 13.3501 21.7568 13.4294 21.9186 13.4614C22.0804 13.4933 22.248 13.4766 22.4003 13.4133C22.5526 13.3499 22.6827 13.2428 22.774 13.1056C22.8654 12.9683 22.914 12.807 22.9137 12.6421C22.9133 12.4213 22.8253 12.2097 22.669 12.0537C22.5128 11.8978 22.301 11.8102 22.0802 11.8102Z" fill="#757575"/>
</svg>
