<svg xmlns="http://www.w3.org/2000/svg" viewBox="0 0 51.1 54.39">
  <defs>
    <style>
      .cls-1 {
        fill: gray;
      }
    </style>
  </defs>
  <g id="Layer_2" data-name="Layer 2">
    <g id="Layer_1-2" data-name="Layer 1">
      <g>
        <path class="cls-1" d="M44.32,5H42.13V0H36.71V5H14.39V0H9V5H6.77A6.78,6.78,0,0,0,0,11.81v35.8a6.78,6.78,0,0,0,6.77,6.78H44.32a6.79,6.79,0,0,0,6.78-6.78V11.81A6.79,6.79,0,0,0,44.32,5ZM47.1,47.61a2.79,2.79,0,0,1-2.78,2.78H6.77A2.78,2.78,0,0,1,4,47.61V19.16H47.1Z"/>
        <rect class="cls-1" x="11.84" y="24.52" width="5.42" height="19.03"/>
      </g>
    </g>
  </g>
</svg>
