<svg xmlns="http://www.w3.org/2000/svg" viewBox="0 0 45.54 44.32">
  <defs>
    <style>
      .cls-1 {
        fill: #f1c24f;
      }
    </style>
  </defs>
  <g id="Layer_2" data-name="Layer 2">
    <g id="Layer_1-2" data-name="Layer 1">
      <g>
        <path class="cls-1" d="M45.54,23.35a9.42,9.42,0,0,0-9.41-9.41v-.07H0V33.1A11.22,11.22,0,0,0,11.23,44.32H24.9A11.22,11.22,0,0,0,36.13,33.1v-.34A9.42,9.42,0,0,0,45.54,23.35ZM32.13,33.1a7.23,7.23,0,0,1-7.23,7.22H11.23A7.23,7.23,0,0,1,4,33.1V17.87H32.13Zm4-4.34V17.94a5.41,5.41,0,0,1,0,10.82Z"/>
        <path class="cls-1" d="M10.19,9.68a2,2,0,0,0,2-2V2a2,2,0,0,0-4,0V7.68A2,2,0,0,0,10.19,9.68Z"/>
        <path class="cls-1" d="M18.23,9.68a2,2,0,0,0,2-2V2a2,2,0,0,0-4,0V7.68A2,2,0,0,0,18.23,9.68Z"/>
        <path class="cls-1" d="M25.94,9.68a2,2,0,0,0,2-2V2a2,2,0,0,0-4,0V7.68A2,2,0,0,0,25.94,9.68Z"/>
      </g>
    </g>
  </g>
</svg>
