<svg xmlns="http://www.w3.org/2000/svg" viewBox="0 0 57.48 57.48">
  <defs>
    <style>
      .cls-1 {
        fill: gray;
      }
    </style>
  </defs>
  <g id="Layer_2" data-name="Layer 2">
    <g id="Layer_1-2" data-name="Layer 1">
      <path class="cls-1" d="M51.48,0H6A6,6,0,0,0,0,6V51.48a6,6,0,0,0,6,6H31.19V36.61H23.52V27.9h7.67V22.53A13.78,13.78,0,0,1,45,8.77h4.11v10H45a3.77,3.77,0,0,0-3.76,3.76V27.9h7.87l-1,8.71H41.19V57.48H51.48a6,6,0,0,0,6-6V6A6,6,0,0,0,51.48,0Z"/>
    </g>
  </g>
</svg>
