<svg xmlns="http://www.w3.org/2000/svg" viewBox="0 0 64.06 64.06">
  <defs>
    <style>
      .cls-1 {
        fill: gray;
      }
    </style>
  </defs>
  <g id="Layer_2" data-name="Layer 2">
    <g id="Layer_1-2" data-name="Layer 1">
      <path class="cls-1" d="M32,0a32,32,0,1,0,32,32A32,32,0,0,0,32,0Zm-.36,52.1a7.23,7.23,0,0,1-3.37,1.18,2.34,2.34,0,0,1-1.81-.72,2.79,2.79,0,0,1-.67-2q0-4.09,4.9-20A4.48,4.48,0,0,0,31,29.24c0-.44-.19-.66-.59-.66a2.94,2.94,0,0,0-1.48.52,34,34,0,0,0-3.72,3.34l-1.44-1.11a25.35,25.35,0,0,1,6-5.12,9.8,9.8,0,0,1,4.59-1.52,2.44,2.44,0,0,1,1.6.46,1.51,1.51,0,0,1,.55,1.24,60,60,0,0,1-2.12,8q-3.45,11.61-3.46,14a1.3,1.3,0,0,0,.23.77.64.64,0,0,0,.49.31q1.05,0,5.37-4.06l1.27,1.25A41.55,41.55,0,0,1,31.67,52.1Zm7.67-36.39A3,3,0,0,1,37.1,16.8a2.17,2.17,0,0,1-1.63-.68,2.5,2.5,0,0,1-.66-1.8,3.6,3.6,0,0,1,.95-2.51,3,3,0,0,1,2.26-1,2.28,2.28,0,0,1,1.67.67,2.39,2.39,0,0,1,.65,1.72A3.64,3.64,0,0,1,39.34,15.71Z"/>
    </g>
  </g>
</svg>
