<svg xmlns="http://www.w3.org/2000/svg" viewBox="0 0 53.05 53.18">
  <defs>
    <style>
      .cls-1 {
        fill: gray;
      }
    </style>
  </defs>
  <g id="Layer_2" data-name="Layer 2">
    <g id="Layer_1-2" data-name="Layer 1">
      <g>
        <path class="cls-1" d="M15.36,0H7.23A7.25,7.25,0,0,0,0,7.23v8.13A7.25,7.25,0,0,0,7.23,22.6h8.13a7.25,7.25,0,0,0,7.24-7.24V7.23A7.25,7.25,0,0,0,15.36,0Zm2.49,15.36a2.5,2.5,0,0,1-2.49,2.49H7.23a2.49,2.49,0,0,1-2.48-2.49V7.23A2.48,2.48,0,0,1,7.23,4.75h8.13a2.49,2.49,0,0,1,2.49,2.48Z"/>
        <path class="cls-1" d="M45.81,0H37.69a7.25,7.25,0,0,0-7.24,7.23v8.13a7.25,7.25,0,0,0,7.24,7.24h8.12a7.25,7.25,0,0,0,7.24-7.24V7.23A7.25,7.25,0,0,0,45.81,0ZM48.3,15.36a2.49,2.49,0,0,1-2.49,2.49H37.69a2.49,2.49,0,0,1-2.49-2.49V7.23a2.48,2.48,0,0,1,2.49-2.48h8.12A2.48,2.48,0,0,1,48.3,7.23Z"/>
        <path class="cls-1" d="M15.36,30.58H7.23A7.25,7.25,0,0,0,0,37.81v8.13a7.25,7.25,0,0,0,7.23,7.24h8.13a7.25,7.25,0,0,0,7.24-7.24V37.81A7.25,7.25,0,0,0,15.36,30.58Zm2.49,15.36a2.49,2.49,0,0,1-2.49,2.49H7.23a2.48,2.48,0,0,1-2.48-2.49V37.81a2.48,2.48,0,0,1,2.48-2.48h8.13a2.49,2.49,0,0,1,2.49,2.48Z"/>
        <path class="cls-1" d="M45.81,30.58H37.69a7.25,7.25,0,0,0-7.24,7.23v8.13a7.25,7.25,0,0,0,7.24,7.24h8.12a7.25,7.25,0,0,0,7.24-7.24V37.81A7.25,7.25,0,0,0,45.81,30.58ZM48.3,45.94a2.48,2.48,0,0,1-2.49,2.49H37.69a2.48,2.48,0,0,1-2.49-2.49V37.81a2.48,2.48,0,0,1,2.49-2.48h8.12a2.48,2.48,0,0,1,2.49,2.48Z"/>
      </g>
    </g>
  </g>
</svg>
