<svg xmlns="http://www.w3.org/2000/svg" viewBox="0 0 47.27 54.19">
  <defs>
    <style>
      .cls-1 {
        fill: gray;
      }
    </style>
  </defs>
  <g id="Layer_2" data-name="Layer 2">
    <g id="Layer_1-2" data-name="Layer 1">
      <g>
        <path class="cls-1" d="M31.09,49.68a.77.77,0,0,1-.77.76H4.52a.76.76,0,0,1-.77-.76V4.52a.76.76,0,0,1,.77-.77h25.8a.77.77,0,0,1,.77.77V11.1h3.75V4.52A4.52,4.52,0,0,0,30.32,0H4.52A4.52,4.52,0,0,0,0,4.52V49.68a4.51,4.51,0,0,0,4.52,4.51h25.8a4.51,4.51,0,0,0,4.52-4.51V43.1H31.09Z"/>
        <polygon class="cls-1" points="47.27 26.96 34.84 13.72 34.84 21.61 16 21.61 16 32.31 34.84 32.31 34.84 40.2 47.27 26.96"/>
      </g>
    </g>
  </g>
</svg>
