<svg xmlns="http://www.w3.org/2000/svg" viewBox="0 0 54.88 54.21">
  <defs>
    <style>
      .cls-1 {
        fill: gray;
      }
    </style>
  </defs>
  <g id="Layer_2" data-name="Layer 2">
    <g id="Layer_1-2" data-name="Layer 1">
      <path class="cls-1" d="M1.75,54.21a1.65,1.65,0,0,1-.58-.1A1.76,1.76,0,0,1,0,52.46V1.75A1.75,1.75,0,0,1,3.11.65c2.3,2.85,12.8,8.23,16.26,10h0c3.9,2,10.94,3,14.32,3.55l1.12.17a1.73,1.73,0,0,1,1.48,1.72V38.13a1.73,1.73,0,0,1-1.48,1.72L33.68,40c-3.38.51-10.41,1.55-14.31,3.55-3.45,1.76-14,7.14-16.26,10A1.74,1.74,0,0,1,1.75,54.21ZM3.5,5.59v43a120.85,120.85,0,0,1,14.27-8.17c4.28-2.19,11.11-3.25,15-3.83v-19c-3.91-.58-10.74-1.64-15-3.83h0A120.85,120.85,0,0,1,3.5,5.59Z"/>
      <path class="cls-1" d="M45.38,18.49v16.3h-1a1.66,1.66,0,0,0-1.59.87,22,22,0,0,1-6,10.41.23.23,0,0,1-.16.07.22.22,0,0,1-.2-.33,19.82,19.82,0,0,0,2.32-10.15s-.07-.87-1.61-.87h-.85V18.49h9.09m0-3.5H34.29c-1.5,0-1.5,1.57-1.5,3.5v16.3a3.51,3.51,0,0,0,2.36,3.31,15.28,15.28,0,0,1-1.77,6,3.72,3.72,0,0,0,3.25,5.55,3.69,3.69,0,0,0,2.65-1.11,27.11,27.11,0,0,0,6.4-10.25,3.5,3.5,0,0,0,3.2-3.49V18.49a3.5,3.5,0,0,0-3.5-3.5Z"/>
      <path class="cls-1" d="M54.88,30.69h-9.5V18.87h9.5Zm-6-3.5h2.5V22.37h-2.5Z"/>
    </g>
  </g>
</svg>
