<svg width="44" height="18" viewBox="0 0 44 18" fill="none" xmlns="http://www.w3.org/2000/svg">
<path d="M35 0H9C4.02944 0 0 4.02944 0 9C0 13.9706 4.02944 18 9 18H35C39.9706 18 44 13.9706 44 9C44 4.02944 39.9706 0 35 0Z" fill="#FF7777"/>
<path d="M9.49 11.42C10.55 11.42 11.11 10.62 11.11 8.96V8.52C11.11 6.7 10.59 5.96 9.45 5.96C8.37 5.96 7.81 6.75 7.81 8.4V8.84C7.81 10.73 8.37 11.42 9.49 11.42ZM9.43 13.2C7.09 13.2 5.25 11.91 5.25 8.86V8.56C5.25 5.46 7.26 4.18 9.5 4.18C11.83 4.18 13.69 5.46 13.69 8.52V8.8C13.69 11.91 11.67 13.2 9.43 13.2V13.2ZM17.44 8.58H18.34C19.24 8.58 19.55 8.17 19.55 7.3C19.55 6.32 19.19 6 18.39 6H17.44V8.58ZM15 13.05V4.32H18.63C20.95 4.32 22.09 5.33 22.09 7.16C22.09 9.14 20.89 10.16 18.69 10.16H17.45V13.06H15V13.05ZM23.28 13.05V4.32H29.31V6.07H25.7V7.74H28.52V9.45H25.7V11.3H29.43V13.05H23.28V13.05ZM30.83 13.05V4.32H33.47L36.3 9.2H36.34V4.3H38.42V13.04H36.1L32.98 7.6H32.92V13.04H30.84L30.83 13.05Z" fill="white"/>
</svg>
