<svg width="74" height="30" viewBox="0 0 74 30" fill="none" xmlns="http://www.w3.org/2000/svg">
<g clip-path="url(#clip0_2623_708)">
<path fill-rule="evenodd" clip-rule="evenodd" d="M14.2 25.17H9.27999V20.7C9.27999 20.3154 9.12722 19.9466 8.8553 19.6747C8.58337 19.4028 8.21455 19.25 7.82999 19.25C7.44543 19.25 7.07661 19.4028 6.80469 19.6747C6.53276 19.9466 6.37999 20.3154 6.37999 20.7V25.17H1.43999C1.05543 25.17 0.686613 25.3228 0.414685 25.5947C0.142758 25.8666 -0.0100098 26.2354 -0.0100098 26.62C-0.0100098 27.0046 0.142758 27.3734 0.414685 27.6453C0.686613 27.9172 1.05543 28.07 1.43999 28.07H14.2C14.5846 28.07 14.9534 27.9172 15.2253 27.6453C15.4972 27.3734 15.65 27.0046 15.65 26.62C15.65 26.2354 15.4972 25.8666 15.2253 25.5947C14.9534 25.3228 14.5846 25.17 14.2 25.17V25.17ZM4.49999 9.15C4.49999 4.55 6.57999 3.87 7.82999 3.87C9.06999 3.87 11.16 4.56 11.16 9.15V9.51C11.16 14.11 9.06999 14.79 7.82999 14.79C6.57999 14.79 4.48999 14.1 4.48999 9.51V9.15H4.49999ZM7.82999 17.69C11.67 17.69 14.06 14.56 14.06 9.51V9.15C14.06 4.1 11.67 0.97 7.82999 0.97C3.97999 0.97 1.58999 4.1 1.58999 9.15V9.51C1.58999 14.56 3.97999 17.7 7.82999 17.7V17.69ZM33.37 10.35H17.81C17.4254 10.35 17.0566 10.5028 16.7847 10.7747C16.5128 11.0466 16.36 11.4154 16.36 11.8C16.36 12.1846 16.5128 12.5534 16.7847 12.8253C17.0566 13.0972 17.4254 13.25 17.81 13.25H33.37C33.7546 13.25 34.1234 13.0972 34.3953 12.8253C34.6672 12.5534 34.82 12.1846 34.82 11.8C34.82 11.4154 34.6672 11.0466 34.3953 10.7747C34.1234 10.5028 33.7546 10.35 33.37 10.35ZM31.82 25.85C24.74 27.68 22.37 26.64 21.68 26.1C21.23 25.75 21.03 25.3 21.03 24.62V23.75H31.28C32.08 23.75 32.74 23.1 32.74 22.3V17.22C32.74 16.42 32.08 15.77 31.28 15.77H19.58C19.1954 15.77 18.8266 15.9228 18.5547 16.1947C18.2828 16.4666 18.13 16.8354 18.13 17.22C18.13 17.6046 18.2828 17.9734 18.5547 18.2453C18.8266 18.5172 19.1954 18.67 19.58 18.67H29.83V20.85H19.57C18.77 20.85 18.12 21.5 18.12 22.3V24.62C18.0973 25.3458 18.2467 26.0668 18.5561 26.7238C18.8654 27.3807 19.326 27.9552 19.9 28.4C21.1 29.33 22.84 29.79 25.11 29.79C27.16 29.79 29.65 29.41 32.55 28.66C32.7352 28.6121 32.9091 28.5281 33.0618 28.413C33.2145 28.2978 33.3431 28.1537 33.4401 27.9889C33.5371 27.8241 33.6008 27.6418 33.6273 27.4524C33.6539 27.263 33.6429 27.0702 33.595 26.885C33.5471 26.6998 33.4631 26.5259 33.348 26.3732C33.2328 26.2205 33.0887 26.0919 32.9239 25.9949C32.7591 25.8978 32.5768 25.8342 32.3874 25.8076C32.1979 25.7811 32.0052 25.7921 31.82 25.84V25.85ZM20.3 7.83H31.1C31.4846 7.83 31.8534 7.67723 32.1253 7.4053C32.3972 7.13338 32.55 6.76456 32.55 6.38C32.55 5.99544 32.3972 5.62662 32.1253 5.3547C31.8534 5.08277 31.4846 4.93 31.1 4.93H21.75V1.45C21.75 1.06544 21.5972 0.696623 21.3253 0.424695C21.0534 0.152767 20.6846 0 20.3 0C19.9154 0 19.5466 0.152767 19.2747 0.424695C19.0028 0.696623 18.85 1.06544 18.85 1.45V6.38C18.85 7.18 19.5 7.83 20.3 7.83Z" fill="black"/>
<path d="M73 1.5C73 0.671573 72.3284 0 71.5 0C70.6716 0 70 0.671573 70 1.5V13.5C70 14.3284 70.6716 15 71.5 15C72.3284 15 73 14.3284 73 13.5V1.5Z" fill="black"/>
<path fill-rule="evenodd" clip-rule="evenodd" d="M64.5 13.28C64.6326 13.642 64.9036 13.9365 65.2533 14.0988C65.6031 14.261 66.003 14.2776 66.365 14.145C66.727 14.0124 67.0215 13.7414 67.1837 13.3916C67.346 13.0419 67.3626 12.642 67.23 12.28C67.18 12.15 66.23 9.6 63.85 7.78L67.55 3.68C67.7382 3.47089 67.8615 3.21154 67.9049 2.93356C67.9483 2.65558 67.9099 2.37099 67.7943 2.11447C67.6788 1.85794 67.4911 1.64057 67.2542 1.48885C67.0173 1.33714 66.7413 1.25762 66.46 1.26H57.41C57.0254 1.26 56.6566 1.41277 56.3847 1.6847C56.1128 1.95662 55.96 2.32544 55.96 2.71C55.96 3.09457 56.1128 3.46338 56.3847 3.73531C56.6566 4.00723 57.0254 4.16 57.41 4.16H63.21L56.33 11.8C56.0714 12.0864 55.9372 12.4639 55.9569 12.8492C55.9766 13.2346 56.1485 13.5964 56.435 13.855C56.7214 14.1136 57.0988 14.2478 57.4842 14.2281C57.8696 14.2084 58.2314 14.0364 58.49 13.75L61.9 9.95C63.0494 10.807 63.9474 11.9571 64.5 13.28V13.28ZM69.56 26.52H62.55C62.4423 26.52 62.3357 26.4988 62.2362 26.4576C62.1367 26.4164 62.0463 26.356 61.9702 26.2798C61.894 26.2037 61.8336 26.1133 61.7924 26.0138C61.7512 25.9143 61.73 25.8077 61.73 25.7V23.75H70.38V25.7C70.38 26.15 70.01 26.52 69.56 26.52V26.52ZM71.83 17.15C71.03 17.15 70.38 17.8 70.38 18.6V20.85H61.73V18.6C61.73 18.2154 61.5772 17.8466 61.3053 17.5747C61.0334 17.3028 60.6645 17.15 60.28 17.15C59.8954 17.15 59.5266 17.3028 59.2547 17.5747C58.9827 17.8466 58.83 18.2154 58.83 18.6V25.7C58.8326 26.6858 59.2254 27.6305 59.9225 28.3275C60.6195 29.0246 61.5642 29.4174 62.55 29.42H69.56C70.5458 29.4174 71.4904 29.0246 72.1875 28.3275C72.8846 27.6305 73.2773 26.6858 73.28 25.7V18.6C73.28 17.8 72.63 17.15 71.83 17.15V17.15ZM42.46 3.87C44.68 3.87 44.79 8.11 44.79 8.95C44.79 9.8 44.68 14.04 42.46 14.04C40.25 14.04 40.14 9.8 40.14 8.96C40.14 8.1 40.25 3.87 42.46 3.87V3.87ZM42.46 16.94C44.22 16.94 45.69 16.01 46.6 14.32C47.31 12.98 47.7 11.12 47.7 8.96C47.7 6.8 47.31 4.94 46.6 3.59C46.2269 2.80758 45.6403 2.14651 44.9078 1.68297C44.1753 1.21943 43.3268 0.972275 42.46 0.970001C40.7 0.970001 39.24 1.9 38.33 3.59C37.61 4.94 37.23 6.79 37.23 8.96C37.23 11.13 37.61 12.97 38.33 14.32C38.7014 15.1016 39.2862 15.7623 40.0169 16.2259C40.7477 16.6895 41.5946 16.937 42.46 16.94" fill="black"/>
<path fill-rule="evenodd" clip-rule="evenodd" d="M51.4 0.489998C50.6 0.489998 49.95 1.14 49.95 1.94V19.72C48.02 20.32 44.2 20.85 39.57 20.85H37.37C36.9854 20.85 36.6166 21.0028 36.3447 21.2747C36.0728 21.5466 35.92 21.9154 35.92 22.3C35.92 22.6846 36.0728 23.0534 36.3447 23.3253C36.6166 23.5972 36.9854 23.75 37.37 23.75H39.57C42.21 23.75 46.78 23.52 49.95 22.73V27.57C49.95 27.9546 50.1028 28.3234 50.3747 28.5953C50.6466 28.8672 51.0154 29.02 51.4 29.02C51.7846 29.02 52.1534 28.8672 52.4253 28.5953C52.6972 28.3234 52.85 27.9546 52.85 27.57V1.94C52.85 1.14 52.2 0.489998 51.4 0.489998" fill="black"/>
</g>
<defs>
<clipPath id="clip0_2623_708">
<rect width="74" height="30" fill="white"/>
</clipPath>
</defs>
</svg>
