<svg width="30" height="30" viewBox="0 0 30 30" fill="none" xmlns="http://www.w3.org/2000/svg">
<path fill-rule="evenodd" clip-rule="evenodd" d="M19.02 6H10.98C10.7271 5.99461 10.4822 6.08928 10.2987 6.26343C10.1152 6.43758 10.0078 6.67713 10 6.93V15.09C10 15.6 10.44 16.02 10.98 16.02H14.68C14.66 16.92 14.28 17.92 13.69 18.79C13.1228 19.5667 12.4496 20.2601 11.69 20.85L11.66 20.88C11.55 20.98 11.46 21.1 11.46 21.26C11.46 21.38 11.53 21.47 11.6 21.57L11.62 21.59L14.19 24.35C14.19 24.35 14.32 24.47 14.42 24.5C14.54 24.52 14.67 24.53 14.76 24.46C16.3267 23.3681 17.6164 21.9251 18.5263 20.2461C19.4361 18.5672 19.9407 16.6987 20 14.79V6.93C19.9922 6.67713 19.8848 6.43758 19.7013 6.26343C19.5178 6.08928 19.2729 5.99461 19.02 6Z" fill="#757575"/>
</svg>
