<svg width="30" height="30" viewBox="0 0 30 30" fill="none" xmlns="http://www.w3.org/2000/svg">
<path fill-rule="evenodd" clip-rule="evenodd" d="M15 3C18.26 3 18.67 3.02 19.95 3.08C21.22 3.13 22.09 3.34 22.85 3.63C23.6529 3.93239 24.3799 4.40682 24.98 5.02C25.592 5.61719 26.0663 6.34067 26.37 7.14C26.67 7.91 26.87 8.78 26.92 10.05C26.98 11.33 27 11.75 27 15C27 18.25 26.98 18.67 26.92 19.95C26.9016 20.9408 26.7157 21.9213 26.37 22.85C26.0676 23.6529 25.5932 24.3799 24.98 24.98C24.3828 25.592 23.6593 26.0663 22.86 26.37C22.09 26.67 21.22 26.87 19.95 26.92C18.67 26.98 18.25 27 15 27C11.75 27 11.33 26.98 10.05 26.92C9.05922 26.9016 8.0787 26.7157 7.15 26.37C6.34709 26.0676 5.62009 25.5932 5.02 24.98C4.40803 24.3828 3.93368 23.6593 3.63 22.86C3.33 22.09 3.13 21.22 3.08 19.95C3.02 18.67 3 18.25 3 15C3 11.75 3.02 11.33 3.08 10.05C3.13 8.78 3.34 7.9 3.63 7.15C3.93239 6.34709 4.40682 5.62009 5.02 5.02C5.61719 4.40803 6.34067 3.93368 7.14 3.63C7.9 3.33 8.78 3.13 10.05 3.08C11.33 3.02 11.75 3 15 3ZM15 5.17C11.8 5.17 11.42 5.17 10.15 5.24C8.98 5.29 8.35 5.48 7.93 5.64C7.37 5.87 6.97 6.13 6.55 6.54C6.14884 6.92939 5.84113 7.40462 5.65 7.93C5.38762 8.64117 5.24895 9.39202 5.24 10.15C5.16938 11.7656 5.14603 13.383 5.17 15C5.17 18.2 5.17 18.58 5.24 19.85C5.29 21.02 5.48 21.65 5.64 22.07C5.87 22.63 6.13 23.03 6.54 23.45C6.97 23.87 7.37 24.13 7.93 24.35C8.35 24.52 8.98 24.71 10.15 24.76C11.42 24.82 11.8 24.83 15 24.83C18.2 24.83 18.58 24.83 19.85 24.76C20.6107 24.7548 21.3649 24.6195 22.08 24.36C22.64 24.13 23.04 23.87 23.46 23.46C23.88 23.03 24.14 22.63 24.36 22.07C24.52 21.65 24.71 21.02 24.76 19.85C24.82 18.58 24.83 18.2 24.83 15C24.83 11.8 24.83 11.42 24.77 10.15C24.7586 9.38811 24.6165 8.63383 24.35 7.92C24.1569 7.39851 23.8494 6.92695 23.45 6.54C23.0664 6.14134 22.5982 5.8338 22.08 5.64C21.3651 5.3799 20.6108 5.2446 19.85 5.24C18.2346 5.16271 16.6172 5.1327 15 5.15V5.17ZM15 8.84C16.6337 8.84 18.2006 9.489 19.3558 10.6442C20.511 11.7994 21.16 13.3663 21.16 15C21.16 16.6337 20.511 18.2006 19.3558 19.3558C18.2006 20.511 16.6337 21.16 15 21.16C13.3663 21.16 11.7994 20.511 10.6442 19.3558C9.489 18.2006 8.84 16.6337 8.84 15C8.84 13.3663 9.489 11.7994 10.6442 10.6442C11.7994 9.489 13.3663 8.84 15 8.84V8.84ZM15 19C16.0609 19 17.0783 18.5786 17.8284 17.8284C18.5786 17.0783 19 16.0609 19 15C19 13.9391 18.5786 12.9217 17.8284 12.1716C17.0783 11.4214 16.0609 11 15 11C13.9391 11 12.9217 11.4214 12.1716 12.1716C11.4214 12.9217 11 13.9391 11 15C11 16.0609 11.4214 17.0783 12.1716 17.8284C12.9217 18.5786 13.9391 19 15 19V19ZM22.84 8.6C22.84 8.98191 22.6883 9.34818 22.4182 9.61823C22.1482 9.88829 21.7819 10.04 21.4 10.04C21.0181 10.04 20.6518 9.88829 20.3818 9.61823C20.1117 9.34818 19.96 8.98191 19.96 8.6C19.96 8.21809 20.1117 7.85182 20.3818 7.58177C20.6518 7.31171 21.0181 7.16 21.4 7.16C21.7819 7.16 22.1482 7.31171 22.4182 7.58177C22.6883 7.85182 22.84 8.21809 22.84 8.6V8.6Z" fill="#757575"/>
</svg>
