<?xml version="1.0" standalone="no"?>
<!DOCTYPE svg PUBLIC "-//W3C//DTD SVG 20010904//EN"
 "http://www.w3.org/TR/2001/REC-SVG-20010904/DTD/svg10.dtd">
<svg version="1.0" xmlns="http://www.w3.org/2000/svg"
 width="512.000000pt" height="512.000000pt" viewBox="0 0 512.000000 512.000000"
 preserveAspectRatio="xMidYMid meet">
<metadata>
Created by potrace 1.14, written by Peter Selinger 2001-2017
</metadata>
<g transform="translate(0.000000,512.000000) scale(0.100000,-0.100000)"
fill="#000000" stroke="none">
<path d="M0 2560 l0 -2560 2560 0 2560 0 0 2560 0 2560 -2560 0 -2560 0 0
-2560z m3280 2246 c153 -36 274 -115 349 -227 60 -90 81 -168 81 -304 0 -280
-125 -571 -567 -1315 -295 -497 -363 -605 -421 -660 -163 -157 -314 -120 -314
75 0 122 24 171 260 530 202 306 370 568 445 696 98 167 202 390 237 510 38
131 43 204 17 271 -16 40 -26 51 -70 72 -99 48 -168 60 -352 60 -155 0 -179
-2 -268 -27 -264 -73 -613 -270 -900 -510 -142 -118 -419 -392 -528 -522 -319
-380 -534 -777 -594 -1101 -23 -121 -17 -286 14 -366 52 -134 157 -229 315
-286 167 -61 282 -77 556 -77 315 0 499 17 650 60 287 82 475 116 538 97 174
-52 204 -223 60 -332 -58 -43 -148 -66 -503 -125 -269 -45 -315 -59 -503 -154
-191 -96 -415 -263 -499 -373 -56 -72 -94 -154 -84 -182 14 -37 72 -49 211
-43 205 8 398 60 810 217 401 153 626 256 1000 458 387 208 685 397 960 607
286 218 352 255 461 255 134 0 183 -104 115 -244 -56 -115 -118 -164 -531
-423 -795 -498 -1725 -920 -2418 -1098 -466 -119 -787 -68 -878 139 -85 196
34 455 325 706 99 85 102 78 -39 100 -197 30 -376 94 -522 188 -150 97 -259
242 -325 432 -31 92 -32 100 -32 255 0 133 4 176 23 255 70 285 190 540 406
865 438 658 1184 1284 1750 1468 73 24 202 58 265 70 14 3 115 4 225 3 147 -2
220 -8 275 -20z"/>
</g>
</svg>
