<svg width="24" height="24" viewBox="0 0 24 24" fill="none" xmlns="http://www.w3.org/2000/svg">
<path d="M4 5H22L19.4 15.5C19.2866 15.94 19.0268 16.3284 18.6632 16.601C18.2997 16.8736 17.8542 17.0144 17.4 17H8.6C8.14582 17.0144 7.70028 16.8736 7.33675 16.601C6.97322 16.3284 6.71338 15.94 6.6 15.5L4 5ZM8 20.5C8 20.1022 8.15804 19.7206 8.43934 19.4393C8.72064 19.158 9.10218 19 9.5 19C9.89782 19 10.2794 19.158 10.5607 19.4393C10.842 19.7206 11 20.1022 11 20.5C11 20.8978 10.842 21.2794 10.5607 21.5607C10.2794 21.842 9.89782 22 9.5 22C9.10218 22 8.72064 21.842 8.43934 21.5607C8.15804 21.2794 8 20.8978 8 20.5V20.5ZM15 20.5C15 20.1022 15.158 19.7206 15.4393 19.4393C15.7206 19.158 16.1022 19 16.5 19C16.8978 19 17.2794 19.158 17.5607 19.4393C17.842 19.7206 18 20.1022 18 20.5C18 20.8978 17.842 21.2794 17.5607 21.5607C17.2794 21.842 16.8978 22 16.5 22C16.1022 22 15.7206 21.842 15.4393 21.5607C15.158 21.2794 15 20.8978 15 20.5Z" stroke="#757575" stroke-width="2" stroke-linecap="round" stroke-linejoin="round"/>
<path d="M1 2H4V5" stroke="#757575" stroke-width="2" stroke-linejoin="round"/>
</svg>
