<svg xmlns="http://www.w3.org/2000/svg" viewBox="0 0 75.31 70.06">
  <defs>
    <style>
      .cls-1 {
        fill: #ccc;
      }
    </style>
  </defs>
  <g id="Layer_2" data-name="Layer 2">
    <g id="Layer_1-2" data-name="Layer 1">
      <path class="cls-1" d="M71.27,12.77A7,7,0,0,1,71,14.92l-13.83,44a7,7,0,0,1-6.66,4.89H14.62c-2.88,0-6.71.39-8.8-1.58a3.29,3.29,0,0,1-.66-3,1.74,1.74,0,0,1,1.71-1.29H47.05A7,7,0,0,0,53.71,53L67.53,9a6.94,6.94,0,0,0-6.62-9H23.54a5.16,5.16,0,0,0-4.92,3.61L17.53,7.08a6.33,6.33,0,0,0-2.61,4,15.62,15.62,0,0,0,0,4.33l-.75,2.38c-1.47,1.9-4.06,5.72-4.28,9.42-.3,5.19-4.45,7.16-5,12.39s-1.68,8.13-3.61,9.87S-1.75,70.53,9,70.05H54.5a7,7,0,0,0,6.67-4.89L75,21.15A6.94,6.94,0,0,0,71.27,12.77ZM22.72,15.66,25,12a1.59,1.59,0,0,1,1.33-.73h28.8a1.57,1.57,0,0,1,1.33,2.41l-2.28,3.63a1.57,1.57,0,0,1-1.33.73H24.05A1.57,1.57,0,0,1,22.72,15.66ZM18.85,27.73l2.28-3.63a1.57,1.57,0,0,1,1.33-.74h28.8a1.57,1.57,0,0,1,1.33,2.41L50.31,29.4a1.57,1.57,0,0,1-1.33.74H20.18A1.57,1.57,0,0,1,18.85,27.73Z"/>
    </g>
  </g>
</svg>
