<svg xmlns="http://www.w3.org/2000/svg" viewBox="0 0 65.9 65.9">
  <defs>
    <style>
      .cls-1 {
        fill: #ccc;
      }
    </style>
  </defs>
  <g id="Layer_2" data-name="Layer 2">
    <g id="Layer_1-2" data-name="Layer 1">
      <path class="cls-1" d="M33,0a33,33,0,1,0,33,33A32.95,32.95,0,0,0,33,0Zm-.4,8.9A10.21,10.21,0,1,1,22.34,19.11,10.21,10.21,0,0,1,32.55,8.9ZM52.45,47C50.06,50.12,43.64,57,33,57a24.84,24.84,0,0,1-19.49-9.71,2.69,2.69,0,0,1-.06-3.2c3.54-5,11-8.48,19.65-8.48,8.44,0,15.76,3.3,19.39,8.13A2.67,2.67,0,0,1,52.45,47Z"/>
    </g>
  </g>
</svg>
