<svg xmlns="http://www.w3.org/2000/svg" viewBox="0 0 7.07 10.51"><defs><style>.cls-1{fill:#fff;}</style></defs><g id="Layer_2" data-name="Layer 2"><g id="Layer_1-2" data-name="Layer 1"><path class="cls-1" d="M7,10.15,7,10a1.09,1.09,0,0,1,0-.9.39.39,0,0,0,.06-.21V.26C7.07.06,7,0,6.81,0H.75A.69.69,0,0,0,.22.27,1,1,0,0,0,0,1V9.65a.84.84,0,0,0,.63.82l.05,0H6.93v0C7.09,10.37,7.1,10.31,7,10.15Zm-.48-.09H.85A.4.4,0,0,1,.42,9.8a.47.47,0,0,1,.15-.54A.4.4,0,0,1,.8,9.18H6.55a3.27,3.27,0,0,0,0,.44A3.28,3.28,0,0,0,6.55,10.06Zm0-1.3H1a1,1,0,0,0-.59.11V1a.85.85,0,0,1,0-.23A.4.4,0,0,1,.85.43H5.13c.48,0,1,0,1.44,0,.09,0,.12,0,.12.11q0,4.06,0,8.13C6.69,8.75,6.64,8.76,6.57,8.76Z"/><path class="cls-1" d="M3.74,2.92a2.81,2.81,0,0,0,0-.29V2.29h-.4v.1a5,5,0,0,1,0,.55.24.24,0,0,1-.09.17.25.25,0,0,1-.17.05H2.56v.43h.57a.19.19,0,0,1,.21.18V6.22h.4V3.88c0-.23,0-.29.28-.29h.49V3.16H4C3.87,3.16,3.72,3.07,3.74,2.92Z"/></g></g></svg>