<svg xmlns="http://www.w3.org/2000/svg" viewBox="0 0 10.44 10.93"><defs><style>.cls-1{fill:#fff;}</style></defs><g id="Layer_2" data-name="Layer 2"><g id="Layer_1-2" data-name="Layer 1"><path class="cls-1" d="M4,10.42V7.29C4,7,4.05,7,4.32,7H6.13c.26,0,.33.07.33.34v3.13H7.9a.51.51,0,0,0,.56-.56V5.19A.24.24,0,0,1,8.69,5a.25.25,0,0,1,.26.2v4.7a1,1,0,0,1-1.06,1.06H2.55a1,1,0,0,1-1.06-1V5.27c0-.19.1-.3.26-.3A.23.23,0,0,1,2,5.18a.71.71,0,0,1,0,.14V9.87a.52.52,0,0,0,.23.49.59.59,0,0,0,.26.07H4Zm2,0v-3H4.48v3Z"/><path class="cls-1" d="M6.71,1.39V.78c0-.19.09-.29.29-.29h.92c.2,0,.29.1.29.3,0,.66,0,1.32,0,2A.26.26,0,0,0,8.28,3l2,2,.08.09a.24.24,0,0,1-.34.34L10,5.32C8.41,3.78,6.87,2.23,5.33.69A.42.42,0,0,1,5.25.57h0L5.12.69C3.57,2.23,2,3.78.49,5.32a.87.87,0,0,1-.11.09.22.22,0,0,1-.31,0,.23.23,0,0,1,0-.31L.14,5,4.92.19c.25-.24.35-.26.6,0S6.3,1,6.71,1.39Zm.5-.4a3.84,3.84,0,0,1,0,.48.67.67,0,0,0,.3.71,1.88,1.88,0,0,1,.19.2V1Z"/></g></g></svg>