<svg xmlns="http://www.w3.org/2000/svg" viewBox="0 0 9.96 9.36"><defs><style>.cls-1{fill:#fff;}</style></defs><g id="Layer_2" data-name="Layer 2"><g id="Layer_1-2" data-name="Layer 1"><path class="cls-1" d="M5,1.62a2.59,2.59,0,0,1,5,.75,3.23,3.23,0,0,1-.46,1.88,12.94,12.94,0,0,1-1.8,2.49A33.82,33.82,0,0,1,5.15,9.28c-.13.11-.21.11-.33,0A26.82,26.82,0,0,1,1.36,5.6a8.93,8.93,0,0,1-1.17-2A2.59,2.59,0,0,1,4.93,1.5Zm0,7.3,0,0A29.79,29.79,0,0,0,7.63,6.23,12,12,0,0,0,9.18,4.05,2.76,2.76,0,0,0,9.56,2.3a2.2,2.2,0,0,0-4.27-.41,4,4,0,0,0-.12.76c0,.12-.08.2-.19.2a.18.18,0,0,1-.19-.2v0a2.21,2.21,0,1,0-4.36.46A4.88,4.88,0,0,0,1.1,4.55,15.73,15.73,0,0,0,2.81,6.76,29.49,29.49,0,0,0,5,8.92Z"/></g></g></svg>