<svg xmlns="http://www.w3.org/2000/svg" viewBox="0 0 7.89 11.78"><defs><style>.cls-1{fill:#fff;}</style></defs><g id="Layer_2" data-name="Layer 2"><g id="Layer_1-2" data-name="Layer 1"><path class="cls-1" d="M3.94,11.78c-.28-.42-.56-.83-.82-1.24A38.11,38.11,0,0,1,.86,6.63a10.42,10.42,0,0,1-.77-2,3.44,3.44,0,0,1,.32-2.4A3.86,3.86,0,0,1,3.48,0,4,4,0,0,1,7.84,3.27a3.79,3.79,0,0,1-.2,1.92A18.69,18.69,0,0,1,6.25,8.12C5.56,9.34,4.81,10.53,4,11.69A.36.36,0,0,1,3.94,11.78Zm0-.86.08-.1c.6-1,1.21-1.94,1.8-2.92A17.6,17.6,0,0,0,7.13,5.17a3.43,3.43,0,0,0,.22-1.82A3.47,3.47,0,0,0,3.56.52,3.4,3.4,0,0,0,.86,2.41,3,3,0,0,0,.53,4.28a5.37,5.37,0,0,0,.4,1.31A22.6,22.6,0,0,0,2.38,8.4C2.88,9.24,3.41,10.07,3.93,10.92Z"/><path class="cls-1" d="M3.94,5.67A1.73,1.73,0,1,1,5.68,4,1.73,1.73,0,0,1,3.94,5.67ZM5.18,4A1.23,1.23,0,1,0,4,5.18,1.24,1.24,0,0,0,5.18,4Z"/></g></g></svg>