<svg xmlns="http://www.w3.org/2000/svg" viewBox="0 0 9.83 9.83"><defs><style>.cls-1{fill:#fff;}</style></defs><g id="Layer_2" data-name="Layer 2"><g id="Layer_1-2" data-name="Layer 1"><path class="cls-1" d="M9.56,3.74C9.25,3.49,9,3.23,8.63,3a.22.22,0,0,1-.09-.19c0-.55,0-1.1,0-1.65,0-.21-.06-.28-.27-.28H6.16A.45.45,0,0,1,5.94.78L5.08.08a.22.22,0,0,0-.34,0l-.86.7a.42.42,0,0,1-.21.08H1.53c-.17,0-.25.07-.25.24V4.18a.25.25,0,0,0,.16.24l.3.11.9.34a.21.21,0,0,0,.21-.36.41.41,0,0,0-.15-.07l-1-.38V1.29H8.11s0,0,0,.05c0,.88,0,1.76,0,2.64A.15.15,0,0,1,8,4.09l-.5.2a.22.22,0,0,0-.15.29.21.21,0,0,0,.31.11l.69-.27a.25.25,0,0,0,.17-.25c0-.22,0-.45,0-.7.25.2.47.39.7.56a.4.4,0,0,1,.16.34V9.08c0,.26-.07.32-.31.32H.74c-.25,0-.31-.06-.31-.31V4.59c0-.5,0-.38.31-.68l0,0a.21.21,0,0,0,0-.31.22.22,0,0,0-.3,0l-.24.19A.68.68,0,0,0,0,4.3V9.16a.64.64,0,0,0,.67.67H9.16a.64.64,0,0,0,.67-.67c0-1.62,0-3.24,0-4.86A.69.69,0,0,0,9.56,3.74ZM4.48.86,4.91.5l.44.36Z"/><path class="cls-1" d="M1.05,5.12l.1,0L4.83,6.58a.41.41,0,0,0,.29,0q1-.37,2-.78l1.72-.67C9,5.09,9,5,9,4.94s-.16-.28-.36-.2L5.09,6.13a.31.31,0,0,1-.23,0L2,5l-.74-.28a.2.2,0,0,0-.28.12A.21.21,0,0,0,1.05,5.12Z"/><path class="cls-1" d="M4,3.59c.25.27.51.52.77.78a.2.2,0,0,0,.31,0c.27-.26.54-.52.8-.8a.62.62,0,0,0,0-.81.66.66,0,0,0-1-.06l-.08-.06A.66.66,0,0,0,4,2.73.63.63,0,0,0,4,3.59ZM4.31,3a.2.2,0,0,1,.3,0l.12.11a.22.22,0,0,0,.37,0L5.21,3a.21.21,0,0,1,.31,0,.21.21,0,0,1,0,.3c-.19.2-.39.39-.6.6l-.6-.61A.2.2,0,0,1,4.31,3Z"/><text/></g></g></svg>