<svg xmlns="http://www.w3.org/2000/svg" viewBox="0 0 8.12 8.96"><defs><style>.cls-1{fill:#fff;}</style></defs><g id="Layer_2" data-name="Layer 2"><g id="Layer_1-2" data-name="Layer 1"><path class="cls-1" d="M8.12,3.79V7.33A.41.41,0,0,1,8,7.57l-1,1.26A.29.29,0,0,1,6.83,9h-6a.75.75,0,0,1-.74-.52A2,2,0,0,1,0,7.81q0-3.48,0-7A.85.85,0,0,1,.85,0H8a.17.17,0,0,1,.16.18V3.79Zm-4-2.08H1.17a1.19,1.19,0,0,1-.85-.19V6.57c0,.44,0,.87,0,1.31a1.4,1.4,0,0,0,.1.45.46.46,0,0,0,.47.31H6.74V1.72H5.89v2s0,.07,0,.09,0,.14-.1.16a.27.27,0,0,1-.19,0l-.35-.35L5,3.3c-.24.23-.44.44-.64.64A.22.22,0,0,1,4.18,4a.38.38,0,0,1-.11-.16.34.34,0,0,1,0-.1v-2ZM7.65.32H.83a.53.53,0,0,0-.47.74.55.55,0,0,0,.55.33H6.7a.22.22,0,0,0,.16,0Zm.16.36h0c-.21.28-.43.55-.63.83a.37.37,0,0,0-.08.22c0,2.15,0,4.3,0,6.44v.15l.08-.09c.19-.26.39-.5.57-.76a.43.43,0,0,0,.08-.24c0-2.13,0-4.27,0-6.4ZM5.56,3.46V1.72H4.39V3.43h0L4.83,3a.18.18,0,0,1,.3,0Z"/></g></g></svg>