<svg xmlns="http://www.w3.org/2000/svg" viewBox="0 0 14.08 9.06"><defs><style>.cls-1{fill:#fff;stroke:#fff;stroke-miterlimit:10;stroke-width:0.16px;}</style></defs><g id="Layer_2" data-name="Layer 2"><g id="Layer_1-2" data-name="Layer 1"><path class="cls-1" d="M14,8.67V1.83a.36.36,0,0,0-.08-.25A8.86,8.86,0,0,0,12.69.66,4.64,4.64,0,0,0,9.46.2,3.92,3.92,0,0,0,8.1.7c-.37.23-.71.52-1.08.79a.63.63,0,0,0-.12-.1A7.17,7.17,0,0,0,5.83.63a4.6,4.6,0,0,0-4.71.2c-.32.2-.6.45-.9.68a.38.38,0,0,0-.14.33c0,2.29,0,4.57,0,6.86a.61.61,0,0,0,0,.14c0,.13.12.17.22.09l.11-.1A4.58,4.58,0,0,1,2.34,7.7a4.2,4.2,0,0,1,2.94.13,5,5,0,0,1,1.56,1c.19.18.21.18.39,0A4.57,4.57,0,0,1,9.16,7.7,4.09,4.09,0,0,1,12,7.81a5,5,0,0,1,1.29.73c.15.11.28.25.43.37a.24.24,0,0,0,.15.05A.29.29,0,0,0,14,8.8.57.57,0,0,0,14,8.67ZM6.9,8.49a4.85,4.85,0,0,0-6.55,0V1.92a.33.33,0,0,1,.12-.28A5.54,5.54,0,0,1,1.6.86,4.34,4.34,0,0,1,5.24.66a4.43,4.43,0,0,1,1.6,1,.23.23,0,0,1,.06.16c0,2.19,0,4.39,0,6.58Zm6.81,0a4.84,4.84,0,0,0-6.54,0V1.91a.35.35,0,0,1,.11-.27A5.3,5.3,0,0,1,8.43.86a4.31,4.31,0,0,1,3.63-.2,4.4,4.4,0,0,1,1.6,1,.31.31,0,0,1,.06.16c0,2.2,0,4.4,0,6.6A.08.08,0,0,1,13.71,8.49Z"/><path class="cls-1" d="M12.49,3.37a4.88,4.88,0,0,0-4,0,.19.19,0,0,0-.13.26c.05.13.16.12.27.08A3.26,3.26,0,0,1,9,3.51a4.39,4.39,0,0,1,2.51-.11,8.46,8.46,0,0,1,.84.31c.16.06.27,0,.27-.2A.42.42,0,0,0,12.49,3.37Z"/><path class="cls-1" d="M12.46,4.54a4.91,4.91,0,0,0-4,0c-.1,0-.21.1-.16.24s.17.13.29.08a4.5,4.5,0,0,1,3.68,0c.12.05.23.07.28-.07S12.57,4.59,12.46,4.54Z"/><path class="cls-1" d="M12.45,5.72a4.82,4.82,0,0,0-3.26-.26c-.25.07-.49.17-.73.26a.16.16,0,0,0-.11.22A.18.18,0,0,0,8.59,6l.09,0a4.57,4.57,0,0,1,3.61,0l.2.08c0-.06.13-.13.12-.18A.33.33,0,0,0,12.45,5.72Z"/><path class="cls-1" d="M1.8,3.68a4,4,0,0,1,.36-.17,4.43,4.43,0,0,1,2.5-.11,8,8,0,0,1,.86.31c.16.06.27,0,.27-.21a1,1,0,0,0-.15-.13,4.91,4.91,0,0,0-4,0,.19.19,0,0,0-.13.27C1.58,3.75,1.69,3.73,1.8,3.68Z"/><path class="cls-1" d="M1.76,4.84l.12,0a4.46,4.46,0,0,1,2.86-.2,7.13,7.13,0,0,1,.78.26c.15.06.27,0,.26-.19a.56.56,0,0,0-.16-.13,4.74,4.74,0,0,0-3-.32,8.88,8.88,0,0,0-1,.31c-.1,0-.16.11-.11.22A.16.16,0,0,0,1.76,4.84Z"/><path class="cls-1" d="M5.61,5.71a4.68,4.68,0,0,0-.48-.18,4.82,4.82,0,0,0-1.51-.24,4.92,4.92,0,0,0-1.48.23,4.52,4.52,0,0,0-.47.18c-.11,0-.21.1-.15.24s.17.12.28.07A4.54,4.54,0,0,1,5.48,6c.11,0,.23.08.29-.06S5.73,5.76,5.61,5.71Z"/><path class="cls-1" d="M5.13,5.53a4.82,4.82,0,0,0-1.51-.24,4.92,4.92,0,0,0-1.48.23,4.92,4.92,0,0,1,1.48-.23A4.82,4.82,0,0,1,5.13,5.53Z"/></g></g></svg>