<svg xmlns="http://www.w3.org/2000/svg" viewBox="0 0 128 144.349" height="144.35" width="128" fill="#bababa"><path d="M54.57 8.344h5.005c12.516 1.669 23.363 7.51 30.873 16.688s10.847 21.694 10.013 33.375C97.957 81.77 78.766 99.292 54.569 99.292h-5.006C24.53 96.79 6.175 74.261 8.678 49.23 11.18 25.866 31.206 8.344 54.569 8.344m0-8.344C27.034 0 3.671 20.86.334 48.395c-3.338 30.038 18.356 56.738 48.394 59.241h5.841c27.535 0 50.898-20.86 54.235-48.394C112.142 29.204 90.448 2.503 60.41 0h-5.84z"/><path d="M82.109 95.12l6.675-5.006L128 139.344l-6.675 5.005L82.11 95.12z"/></svg>