<svg width="30" height="14" viewBox="0 0 30 14" fill="none" xmlns="http://www.w3.org/2000/svg">
<path d="M23 0H7C3.13401 0 0 3.13401 0 7C0 10.866 3.13401 14 7 14H23C26.866 14 30 10.866 30 7C30 3.13401 26.866 0 23 0Z" fill="#757575"/>
<path d="M7.1 10.59C8.62 10.59 9.34 9.77 9.34 8.63C9.34 7.63 8.81 7.15 8.01 6.99V6.96C8.77 6.7 9.06 6.18 9.06 5.46C9.06 4.37 8.42 3.73 6.94 3.73H4.69V10.59H7.09H7.1ZM6.73 6.65H5.83V4.64H6.78C7.52 4.64 7.91 4.89 7.91 5.63C7.91 6.41 7.41 6.65 6.73 6.65ZM6.93 9.67H5.83V7.47H6.87C7.69 7.47 8.13 7.77 8.13 8.56C8.13 9.31 7.71 9.67 6.93 9.67ZM14.58 10.59V9.62H11.66V7.54H13.88V6.58H11.66V4.7H14.52V3.73H10.51V10.59H14.58ZM18.38 10.59V4.7H20.21V3.73H15.38V4.7H17.23V10.59H18.38ZM21.3 10.59L21.88 8.85H24.27L24.85 10.59H26.05L23.75 3.73H22.57L20.23 10.59H21.3ZM23.98 7.93H22.15L23.05 5.19H23.08L23.98 7.93Z" fill="white"/>
</svg>
