<svg width="47" height="20" viewBox="0 0 47 20" fill="none" xmlns="http://www.w3.org/2000/svg">
<path d="M43 0H4C1.79086 0 0 1.79086 0 4V16C0 18.2091 1.79086 20 4 20H43C45.2091 20 47 18.2091 47 16V4C47 1.79086 45.2091 0 43 0Z" fill="black" fill-opacity="0.07"/>
<path fill-rule="evenodd" clip-rule="evenodd" d="M12.73 5.38V9.34H6.13V5.38H12.73ZM10.05 14.81H8.76V11.56H5V10.53H13.86V11.56H10.05V14.81V14.81ZM11.45 8.32V6.41H7.43V8.32H11.47H11.45ZM22.53 11.02H21.11V12.56H23.37V13.58H14.51V12.56H16.75V11.03H15.65V7.78H20.97V6.65H15.6V5.63H22.26V8.8H16.93V9.98H22.54V11.02H22.53ZM18 11.02V12.56H19.87V11.03H18V11.02ZM32.37 14.8H31.14V9.86H30.34V14.35H29.14V5.18H30.34V8.84H31.14V5H32.37V14.8V14.8ZM28.17 12.26H24.27V6.01H25.54V8.27H26.9V6H28.18V12.26H28.17ZM26.9 11.25V9.25H25.54V11.25H26.9ZM41.39 12.96C41.39 14.09 40.14 14.78 37.98 14.78C35.82 14.78 34.56 14.08 34.56 12.96C34.56 11.84 35.81 11.14 37.96 11.14C40.14 11.14 41.39 11.84 41.39 12.96ZM37.98 6.91C37.48 8.04 35.88 8.81 34.47 9.01L33.93 8.01C35.57 7.84 37.32 6.95 37.32 5.47V5.2H38.65V5.48C38.65 6.96 40.64 7.95 42.05 8.01L41.5 9.02C40.19 8.84 38.47 8.05 37.98 6.92V6.91ZM42.4 10.69H33.54V9.66H37.33V8.4H38.62V9.66H42.4V10.69V10.69ZM40.07 12.96C40.07 12.46 39.24 12.16 37.97 12.16C36.7 12.16 35.89 12.46 35.89 12.96C35.89 13.47 36.7 13.76 37.97 13.76C39.24 13.76 40.07 13.47 40.07 12.96Z" fill="#757575"/>
</svg>
