<svg width="21" height="9" viewBox="0 0 21 9" fill="none" xmlns="http://www.w3.org/2000/svg">
<g clip-path="url(#clip0_2102_809)">
<path d="M20.5 5H0.5C0.367392 5 0.240215 4.94732 0.146447 4.85355C0.0526784 4.75979 0 4.63261 0 4.5C0 4.36739 0.0526784 4.24021 0.146447 4.14645C0.240215 4.05268 0.367392 4 0.5 4H20.5C20.6326 4 20.7598 4.05268 20.8536 4.14645C20.9473 4.24021 21 4.36739 21 4.5C21 4.63261 20.9473 4.75979 20.8536 4.85355C20.7598 4.94732 20.6326 5 20.5 5Z" fill="#345CCD"/>
<path d="M16.4999 8.99965C16.4009 8.99983 16.3041 8.9706 16.2217 8.91568C16.1393 8.86075 16.0751 8.78259 16.0371 8.69112C15.9992 8.59964 15.9893 8.49897 16.0087 8.40186C16.028 8.30476 16.0758 8.21558 16.1459 8.14565L19.7929 4.49966L16.1459 0.853655C16.052 0.759768 15.9993 0.632431 15.9993 0.499655C15.9993 0.366879 16.052 0.239542 16.1459 0.145655C16.2398 0.0517684 16.3671 -0.00097656 16.4999 -0.000976562C16.6327 -0.000976565 16.76 0.0517684 16.8539 0.145655L20.8539 4.14566C20.9005 4.1921 20.9374 4.24728 20.9626 4.30802C20.9878 4.36877 21.0008 4.43389 21.0008 4.49966C21.0008 4.56542 20.9878 4.63054 20.9626 4.69129C20.9374 4.75203 20.9005 4.80721 20.8539 4.85366L16.8539 8.85365C16.8074 8.90006 16.7522 8.93683 16.6914 8.96189C16.6307 8.98694 16.5656 8.99977 16.4999 8.99965Z" fill="#345CCD"/>
</g>
<defs>
<clipPath id="clip0_2102_809">
<rect width="21" height="9" fill="white"/>
</clipPath>
</defs>
</svg>
