<svg xmlns="http://www.w3.org/2000/svg" width="281.637" height="86.777" viewBox="0 0 281.637 86.777">
  <defs>
    <style>
      .cls-1 {
        fill: #FEE2C7;
        fill-rule: evenodd;
      }
    </style>
  </defs>
  <g id="Layer_2" data-name="Layer 2">
    <g id="ƒŒƒCƒ_1" data-name="ƒŒƒCƒ„[ 1">
      <path class="cls-1" d="M43.985,79.683c11.587,0,16.546-6.821,18.2-9.58a86.993,86.993,0,0,0,4.688-9.526c1.35-3.152,2.62-4.553,4.126-4.553,1.31,0,2.139,1.044,2.139,2.7,0,.877-2.487,13.544-2.582,14.159-.553,3.417-1.057,4.821-2.142,5.959a9.332,9.332,0,0,1-2.208,1.6,46.31,46.31,0,0,1-23.223,6.328C18.678,86.777,0,68.314,0,44.305,0,26.752,9.23,11.91,24.8,4.425A40.927,40.927,0,0,1,45.464.046C56.313.542,64.486,6.6,66.791,7.938c3.82,2.218,3.359,5.673,3.453,6.778.367,4.436.589,9.6.589,10.761,0,2.957-.626,4.162-2.179,4.162-1.332,0-2.05-.885-3.217-3.938C60.923,13.847,53.78,7.638,44.609,7.638c-9.574,0-18.447,6.065-22.694,15.516-2.468,5.5-3.67,12.072-3.67,20.1,0,13.412,3.381,23.39,10.069,29.758C33.508,77.952,38.933,79.683,43.985,79.683Z"/>
      <path class="cls-1" d="M96.283,6.061c0,2.125-.143,24.321-.143,24.829,0,1.653.42,2.441,1.3,2.441a4.483,4.483,0,0,0,2.265-.929,22.926,22.926,0,0,1,11.1-3.014,20.8,20.8,0,0,1,11.83,3.393,14.384,14.384,0,0,1,4.954,6.812c.673,1.97.857,3.506.894,7.558.073,3.561.347,25.1.347,25.1,0,5.06.671,6.648,3.524,8.379,1.38.842,1.793,1.2,1.746,1.714-.121,1.408-2.683,1.535-7.887,1.535l-13.084.185c-3.124,0-4.427-.417-4.427-1.418,0-.627.606-1.343,2.132-2.511a7.287,7.287,0,0,0,2.929-6.365c0-.469-.4-29.514-.4-29.514-.088-5.254-4.405-6.355-7.73-6.483a10.662,10.662,0,0,0-8.277,4.02c-.837,1.133-1,3.58-.97,5.967.048,3.265-.137,24.054-.137,24.67a12.7,12.7,0,0,0,.785,5.134c.482,1.01.935,1.463,2.536,2.46,1.92,1.2,2.725,1.98,2.725,2.641,0,1.087-1.794,1.46-3.936,1.46L80.735,84.1c-2.9,0-4.214-.417-4.151-1.366.068-1.082,2.076-1.885,2.9-2.808A6.827,6.827,0,0,0,81.264,75.9c.034-1.127.074-55.517.074-55.517-.125-5.175-1.074-5.9-2.343-6.9-1.2-.937-1.891-1.6-1.891-2.253,0-.531.536-1.076,1.891-1.569a86.3,86.3,0,0,0,8.5-3.452c4.192-2.343,4.937-4.837,7.027-4.684C96.252,1.649,96.283,3.944,96.283,6.061Z"/>
      <path class="cls-1" d="M159.043,5.472s.484,64.847.484,65.7c0,4.179.305,6.216,1.321,7.529.863,1.109,4.807,2.216,4.563,4.064-.117.867-2.365.979-4.63.979-.552,0-17.03.128-17.03.128-3.675-.1-4.721-.354-4.721-1.107,0-.863,2.009-1.925,3.084-2.833,1.6-1.359,2.069-1.9,2.069-5.025,0-.343-.23-56.825-.23-56.825a5.109,5.109,0,0,0-2.374-4.691c-1.147-.724-2.041-1.433-1.554-2.394s1.665-1.379,3.044-1.747A41.988,41.988,0,0,0,148.523,7.2a24.275,24.275,0,0,0,5.86-3.734c1.281-.986,1.623-1.573,2.767-1.69C158.382,1.649,159.123,2.512,159.043,5.472Z"/>
      <path class="cls-1" d="M269.181,10.431c2.986.709,4.5,1.821,4.5,3.893,0,2.569-2.6,5.6-7.164,8.341-3.262,1.948-7.458,3.465-9.623,3.465-1,0-3.09-.075-3.09-1.957,0-.963.927-1.936,3.22-3.384a6.188,6.188,0,0,0,2.4-2.151,4.94,4.94,0,0,0,.842-2.742,4.864,4.864,0,0,0-1.734-3.656c-1.122-1.159-1.556-1.882-1.556-2.58,0-1.849,2.611-2.215,4.092-1.722C263.237,8.662,268.838,10.347,269.181,10.431Z"/>
      <path class="cls-1" d="M270.808,59.475c2.345,0,8.977.337,10.03-.727.874-.891.8-1.68.8-3.3,0-12.92-9.1-25.94-24.756-25.94-17.133,0-27.032,15.9-27.032,27.543a28.029,28.029,0,0,0,27.87,28.217c8.091,0,15.925-3.3,20.821-8.774,1.218-1.355,1.755-2.412,1.755-3.439a2.334,2.334,0,0,0-2.313-2.36c-.836,0-1.76.525-3.144,1.8-2.361,2.165-9.03,7.1-15.615,5.7-12.818-2.714-12.569-17.014-11.955-18.736ZM247.141,49.109c1.109-4.56,2.957-13.318,9.617-13.318,5.424,0,8.014,7.033,8.747,13.935.189,1.715.374,3.328-3.694,3.328l-11.236-.016C246.525,53.038,246.525,51.649,247.141,49.109Z"/>
      <path class="cls-1" d="M197.548,29.4c-20.3,0-29.486,16.008-29.486,27.245,0,14.28,9.8,28.83,28.556,28.83,16.131,0,28.374-12.2,28.374-27.973C224.992,41.96,212.625,29.4,197.548,29.4Zm.281,49.663c-10.227,0-13.187-10.6-13.187-21.822,0-14.544,6.532-21.446,11.219-21.446,11.214,0,12.943,12.636,12.943,21.446C208.8,72.407,203.131,79.067,197.829,79.067Z"/>
    </g>
  </g>
</svg>
