<svg width="24" height="24" viewBox="0 0 24 24" fill="none" xmlns="http://www.w3.org/2000/svg">
<path d="M12.472 17.07C12.3268 16.9922 12.1647 16.9515 12 16.9515C11.8353 16.9515 11.6732 16.9922 11.528 17.07L4.472 20.881C4.31958 20.9629 4.14849 21.0039 3.97548 20.9998C3.80248 20.9957 3.6335 20.9468 3.4851 20.8578C3.33671 20.7687 3.21398 20.6427 3.12894 20.492C3.0439 20.3413 2.99947 20.171 3 19.998V4.502C3 3.672 3.672 3 4.5 3H19.5C20.328 3 21 3.673 21 4.502V19.998C21.0002 20.1709 20.9556 20.341 20.8705 20.4915C20.7854 20.6421 20.6627 20.768 20.5144 20.8569C20.3661 20.9459 20.1973 20.9949 20.0244 20.9991C19.8515 21.0033 19.6805 20.9626 19.528 20.881L12.472 17.07V17.07Z" fill="#35C5F0"/>
</svg>
