<svg width="20" height="20" viewBox="0 0 20 20" fill="none" xmlns="http://www.w3.org/2000/svg">
<path fill-rule="evenodd" clip-rule="evenodd" d="M16.41 0H3.59C2.63787 0 1.72474 0.378231 1.05149 1.05149C0.378231 1.72474 0 2.63787 0 3.59L0 16.41C0 17.3621 0.378231 18.2753 1.05149 18.9485C1.72474 19.6218 2.63787 20 3.59 20H16.41C17.3621 20 18.2753 19.6218 18.9485 18.9485C19.6218 18.2753 20 17.3621 20 16.41V3.59C20 2.63787 19.6218 1.72474 18.9485 1.05149C18.2753 0.378231 17.3621 0 16.41 0Z" fill="#35C5F0"/>
<path fill-rule="evenodd" clip-rule="evenodd" d="M14.75 10.34C14.01 10.34 13.42 9.74 13.42 9C13.42 8.26 14.02 7.66 14.75 7.66C15.48 7.66 16.07 8.26 16.07 9C16.07 9.74 15.48 10.34 14.75 10.34ZM13.75 13.87H6.11999V8.75L9.93999 6.05L12.14 7.6C11.9115 8.03138 11.7914 8.51186 11.79 9C11.7882 9.61825 11.9775 10.2219 12.3319 10.7285C12.6863 11.2351 13.1886 11.6198 13.77 11.83V13.87H13.75ZM14.75 6C14.41 6 14.09 6.06 13.78 6.17L10.61 3.93C10.412 3.79191 10.1764 3.71787 9.93499 3.71787C9.69359 3.71787 9.458 3.79191 9.25999 3.93L4.49999 7.28C4.34269 7.39055 4.21426 7.53727 4.12551 7.70782C4.03675 7.87837 3.99028 8.06774 3.98999 8.26V14.8C3.98999 15.46 4.51999 16 5.17999 16H14.68C14.9948 15.9948 15.2949 15.866 15.5156 15.6415C15.7364 15.4171 15.86 15.1148 15.86 14.8V11.78C16.4073 11.5506 16.8742 11.164 17.2017 10.6691C17.5292 10.1743 17.7026 9.59341 17.7 9C17.7 7.35 16.38 6 14.74 6H14.75Z" fill="white"/>
</svg>
