<svg width="30" height="30" viewBox="0 0 30 30" fill="none" xmlns="http://www.w3.org/2000/svg">
<path fill-rule="evenodd" clip-rule="evenodd" d="M4.21999 26.95C4.06668 26.6216 3.99139 26.2623 3.99999 25.9V3.8C3.99999 3.38 4.07999 3.03 4.21999 2.75L16.32 14.85L4.21999 26.95V26.95ZM4.95999 27.63L17.03 15.56L20.73 19.26L6.52999 27.36C5.92999 27.7 5.38999 27.78 4.95999 27.63V27.63ZM20.74 10.43L17.03 14.14L4.95999 2.07C5.09999 2.03 5.25999 2 5.40999 2C5.74999 2 6.12999 2.1 6.52999 2.34L20.73 10.44L20.74 10.43ZM21.64 10.95L25.96 13.41C27.35 14.21 27.35 15.5 25.96 16.29L21.64 18.75L17.74 14.85L21.64 10.95Z" fill="black"/>
</svg>
