<svg width="45" height="45" viewBox="0 0 45 45" fill="none" xmlns="http://www.w3.org/2000/svg">
<path d="M44.4938 42.0407L35.146 32.7127C38.4451 28.7842 40.1005 23.7333 39.7669 18.6137C39.4333 13.494 37.1365 8.70078 33.3555 5.23371C29.5744 1.76664 24.6011 -0.106598 19.4728 0.0046892C14.3444 0.115977 9.45705 2.20319 5.82991 5.83102C2.20277 9.45886 0.115954 14.3472 0.0046883 19.4765C-0.106578 24.6058 1.7663 29.5801 5.23271 33.3619C8.69911 37.1436 13.4914 39.4409 18.6101 39.7745C23.7288 40.1082 28.7786 38.4525 32.7065 35.1527L42.0327 44.5023C42.3628 44.8215 42.804 45 43.2632 45C43.7224 45 44.1636 44.8215 44.4938 44.5023C44.8181 44.1748 45 43.7325 45 43.2715C45 42.8105 44.8181 42.3682 44.4938 42.0407ZM3.5405 19.9515C3.5405 16.7059 4.50277 13.5331 6.30561 10.8344C8.10846 8.13576 10.6709 6.0324 13.6689 4.79034C16.667 3.54828 19.9659 3.2233 23.1486 3.8565C26.3313 4.4897 29.2548 6.05263 31.5494 8.34766C33.8439 10.6427 35.4066 13.5667 36.0397 16.75C36.6727 19.9333 36.3478 23.2329 35.106 26.2315C33.8642 29.2301 31.7612 31.793 29.0631 33.5962C26.3649 35.3994 23.1927 36.3619 19.9477 36.3619C15.598 36.3562 11.4281 34.6254 8.35237 31.5491C5.27666 28.4728 3.54621 24.3021 3.5405 19.9515Z" fill="#222222" fill-opacity="0.8"/>
</svg>
