<svg xmlns="http://www.w3.org/2000/svg" viewBox="0 0 70.64 47.69">
  <defs>
    <style>
      .cls-1 {
        fill: gray;
      }
    </style>
  </defs>
  <g id="Layer_2" data-name="Layer 2">
    <g id="Layer_1-2" data-name="Layer 1">
      <path class="cls-1" d="M68.22,8.08H61.7v0l-3.38-.11-1.45-.05L49.8,1l-1-1H36.61l-1,1L32.36,4.3l-.65-.57H26.85c-.6,0-5.74.42-10.87,6.67H2.42A2.42,2.42,0,0,0,0,12.82v19a2.42,2.42,0,0,0,2.42,2.42h12l11,10.63.08.07.07.06a11.11,11.11,0,0,0,6.64,2.69A7,7,0,0,0,37,46.29a7.08,7.08,0,0,0,.82.05,7.82,7.82,0,0,0,3.85-1,6.54,6.54,0,0,0,2.67-2.6,8.06,8.06,0,0,0,3.54-1.54,6.54,6.54,0,0,0,2-2.32c4.22-.48,5.5-3.26,5.86-4.52l.14-.48V31H68.22a2.42,2.42,0,0,0,2.42-2.42V10.5A2.42,2.42,0,0,0,68.22,8.08ZM7.41,32.23A1.59,1.59,0,1,1,9,30.65,1.58,1.58,0,0,1,7.41,32.23Zm44.94-2.45v3.57c-.49,1.7-2.3,2.06-3.79,2.06a10.55,10.55,0,0,1-2.11-.22s1.35,1.65-.68,3.2a5,5,0,0,1-3,1,5.76,5.76,0,0,1-1.51-.19s1.16,1.74-1.26,3.1a4.25,4.25,0,0,1-4.45-.1c-.48,1.65-1.06,2-3.29,2a7.89,7.89,0,0,1-4.35-1.84l-12-11.61H12.58V13.9h5.13C22.35,7.42,27,7.23,27,7.23h2.47l-1,1a8.37,8.37,0,0,0-2.56,11.42,7.61,7.61,0,0,0,6.76,4.3,8.73,8.73,0,0,0,4.79-1.52l.23-.16.21-.21,4.34-4.29.17-.16.93,1.14.77.68,8.22,10.35ZM58.2,27.5H55L45.89,16.31,42.71,12.4l-.58.57-2.49,2.47-4.18,4.12a5.33,5.33,0,0,1-2.77.88c-1.21,0-2.6-.55-3.72-2.52-2.51-4.45,1.74-7,1.74-7l1.81-1.83L35,6.63,38.07,3.5h9.29l8,7.84,2.81.1Zm5,2.4a1.59,1.59,0,0,1-1.53-1.21V28a1.58,1.58,0,1,1,1.53,1.95Z"/>
    </g>
  </g>
</svg>
