<svg xmlns="http://www.w3.org/2000/svg" viewBox="0 0 57.58 56.13">
  <defs>
    <style>
      .cls-1 {
        fill: gray;
      }
    </style>
  </defs>
  <g id="Layer_2" data-name="Layer 2">
    <g id="Layer_1-2" data-name="Layer 1">
      <path class="cls-1" d="M42.58,3.75A11.27,11.27,0,0,1,53.83,15V41.13A11.27,11.27,0,0,1,42.58,52.38H15A11.27,11.27,0,0,1,3.75,41.13V15A11.27,11.27,0,0,1,15,3.75H42.58m0-3.75H15A15,15,0,0,0,0,15V41.13a15,15,0,0,0,15,15H42.58a15,15,0,0,0,15-15V15a15,15,0,0,0-15-15Z"/>
      <path class="cls-1" d="M28.79,17.3A10.77,10.77,0,1,1,18,28.06,10.78,10.78,0,0,1,28.79,17.3m0-3.75A14.52,14.52,0,1,0,43.31,28.06,14.52,14.52,0,0,0,28.79,13.55Z"/>
      <path class="cls-1" d="M43.79,9.58a3.1,3.1,0,1,0,3.1,3.1,3.1,3.1,0,0,0-3.1-3.1Z"/>
    </g>
  </g>
</svg>
