<svg xmlns="http://www.w3.org/2000/svg" viewBox="0 0 57.87 62.84">
  <defs>
    <style>
      .cls-1 {
        fill: #757575;
      }
    </style>
  </defs>
  <g id="Layer_2" data-name="Layer 2">
    <g id="Layer_1-2" data-name="Layer 1">
      <path class="cls-1" d="M53.33,40.28l-.47-17.67a5,5,0,0,0,0-10.06,5,5,0,0,0-3.76,1.72L34,6.08a5.19,5.19,0,0,0,.11-1A5,5,0,0,0,24,5c0,.11,0,.21,0,.32L9,14.57a5,5,0,1,0-4.68,8l.47,17.7a5,5,0,1,0,4.49,7.61L24.37,56A5.08,5.08,0,0,0,24,57.81a5,5,0,0,0,10.06,0,5.12,5.12,0,0,0-.27-1.57l14.47-8.87a5,5,0,1,0,5-7.09ZM29.06,52.77A5.06,5.06,0,0,0,25.83,54L12.07,46.51H44.91L32.48,54.13A5,5,0,0,0,29.06,52.77Zm0-42.71a4.88,4.88,0,0,0,1.28-.18L50.19,41A5,5,0,0,0,48,44H9.89a5,5,0,0,0-1.83-2.75L28,10A5.1,5.1,0,0,0,29.06,10.06Zm18.87,6.43a4.92,4.92,0,0,0-.12,1.09,5,5,0,0,0,2.53,4.35l.41,15.3L32.53,8.66a3.49,3.49,0,0,0,.32-.35ZM24.86,7.79a4.75,4.75,0,0,0,.92,1l-18.51,29L6.85,22.26a5,5,0,0,0,3.21-4.68,4.91,4.91,0,0,0-.06-.67Z"/>
    </g>
  </g>
</svg>
