<svg xmlns="http://www.w3.org/2000/svg" viewBox="0 0 54 60.62">
  <defs>
    <style>
      .cls-1 {
        fill: gray;
      }
    </style>
  </defs>
  <g id="Layer_2" data-name="Layer 2">
    <g id="Layer_1-2" data-name="Layer 1">
      <path class="cls-1" d="M46.65,25.21H42.41V16.34a16.34,16.34,0,0,0-32.68,0v8.87H7.35A7.35,7.35,0,0,0,0,32.56V53.27a7.35,7.35,0,0,0,7.35,7.35h39.3A7.35,7.35,0,0,0,54,53.27V32.56A7.35,7.35,0,0,0,46.65,25.21ZM13.5,16.34a12.57,12.57,0,0,1,25.14,0v8.87H13.5Zm36,36.93a2.86,2.86,0,0,1-2.85,2.85H7.35A2.86,2.86,0,0,1,4.5,53.27V32.56a2.86,2.86,0,0,1,2.85-2.85h39.3a2.86,2.86,0,0,1,2.85,2.85Z"/>
    </g>
  </g>
</svg>
