<svg xmlns="http://www.w3.org/2000/svg" viewBox="0 0 177.39 177.39">
  <defs>
    <style>
      .cls-1 {
        fill: #bdbdbd;
      }
    </style>
  </defs>
  <g id="Layer_2" data-name="Layer 2">
    <g id="Layer_1-2" data-name="Layer 1">
      <path class="cls-1" d="M88.69,0a88.7,88.7,0,1,0,88.7,88.69A88.69,88.69,0,0,0,88.69,0Zm-1,49.13A19.74,19.74,0,1,1,68,68.87,19.74,19.74,0,0,1,87.73,49.13Zm32,67.16a11.59,11.59,0,0,1-11.63,11.55H67.38a11.59,11.59,0,0,1-11.63-11.55v-8.86c0-11.56,6.06-21.53,13.52-21.53H73.5a20.24,20.24,0,0,0,28.47,0h4.22c7.47,0,13.53,10,13.53,21.53Z"/>
    </g>
  </g>
</svg>
