<svg xmlns="http://www.w3.org/2000/svg" viewBox="0 0 57.56 57.56">
  <defs>
    <style>
      .cls-1 {
        fill: gray;
      }
    </style>
  </defs>
  <g id="Layer_2" data-name="Layer 2">
    <g id="Layer_1-2" data-name="Layer 1">
      <path class="cls-1" d="M28.78,57.56A28.78,28.78,0,1,1,57.56,28.78,28.81,28.81,0,0,1,28.78,57.56Zm0-53.81a25,25,0,1,0,25,25A25.06,25.06,0,0,0,28.78,3.75Z"/>
      <path class="cls-1" d="M29.06,35.49A1.88,1.88,0,0,1,29,31.74a6.45,6.45,0,1,0-6.66-6.45,1.88,1.88,0,1,1-3.75,0,10.2,10.2,0,1,1,10.54,10.2Z"/>
      <circle class="cls-1" cx="28.78" cy="42.46" r="2.2"/>
    </g>
  </g>
</svg>
