<svg xmlns="http://www.w3.org/2000/svg" viewBox="0 0 54.99 55.78">
  <defs>
    <style>
      .cls-1 {
        fill: gray;
      }
    </style>
  </defs>
  <g id="Layer_2" data-name="Layer 2">
    <g id="Layer_1-2" data-name="Layer 1">
      <path class="cls-1" d="M28.51,3.5c4.19,0,5.22,6.81,4.56,11.81s-1.38,8.26-1.38,8.26H49.24s4.78,1.61.39,7.49a5.11,5.11,0,0,1-1,6.83s2.38,4.65-1,6.71c0,0,3.1,5.36-3.94,7.68h-29V27.06s6.13-4.78,8.45-9.23A20.39,20.39,0,0,0,25.24,8.6s-1.35-4.83,3-5.09h.24m0-3.5h-.44a6.64,6.64,0,0,0-5.26,2.71A8.24,8.24,0,0,0,21.74,9,17,17,0,0,1,20,16.21c-1.61,3.08-6,6.88-7.5,8.09l-1.35,1.05V55.78h33.1l.53-.18c4.16-1.37,5.84-3.76,6.51-5.52a8.19,8.19,0,0,0,.34-4.52,8.39,8.39,0,0,0,1-6.91,8.38,8.38,0,0,0,1-7.27,8.34,8.34,0,0,0,1.08-6.71,7,7,0,0,0-4.32-4.41l-.54-.19H35.91c.2-1.21.42-2.66.63-4.3.57-4.3.15-10-2.72-13.32A6.92,6.92,0,0,0,28.51,0Z"/>
      <path class="cls-1" d="M14.66,55.78H3.82A3.82,3.82,0,0,1,0,52V29.14a3.83,3.83,0,0,1,3.82-3.83H14.66Zm-10.84-27a.32.32,0,0,0-.32.33V52a.32.32,0,0,0,.32.32h7.34V28.81Z"/>
    </g>
  </g>
</svg>
