<svg xmlns="http://www.w3.org/2000/svg" viewBox="0 0 64.04 64.04">
  <defs>
    <style>
      .cls-1 {
        fill: #616161;
      }
    </style>
  </defs>
  <g id="Layer_2" data-name="Layer 2">
    <g id="Layer_1-2" data-name="Layer 1">
      <g>
        <path class="cls-1" d="M32,0A32,32,0,1,0,64,32,32.05,32.05,0,0,0,32,0Zm0,58A26,26,0,1,1,58,32,26,26,0,0,1,32,58Z"/>
        <path class="cls-1" d="M35.15,16.63H28.82c-3.21,0-5.83,2.92-5.83,6.5V47.87h4.83v-13h8.33V47.74H41V23.13C41,19.55,38.36,16.63,35.15,16.63ZM27.82,30.08V23.13c0-1,.59-1.67,1-1.67h6.33c.41,0,1,.65,1,1.67v7Z"/>
      </g>
    </g>
  </g>
</svg>
